<svg width="20" height="20" viewBox="0 0 20 20" fill="none" xmlns="http://www.w3.org/2000/svg">
<path d="M12.5 2C10.4957 2 8.87097 3.73201 8.87097 5.86855C8.87097 8.00509 10.4957 9.73709 12.5 9.73709C14.5043 9.73709 16.129 8.00509 16.129 5.86855C16.129 3.73201 14.5043 2 12.5 2Z" fill="currentColor"/>
<path d="M8.62903 11.8003C6.62477 11.8003 5 13.5323 5 15.6689V16.8947C5 17.6718 5.52827 18.3343 6.24768 18.4595C10.3885 19.1802 14.6115 19.1802 18.7523 18.4595C19.4717 18.3343 20 17.6718 20 16.8947V15.6689C20 13.5323 18.3752 11.8003 16.371 11.8003H16.0411C15.8626 11.8003 15.6851 11.8304 15.5154 11.8895L14.6778 12.181C13.2627 12.6736 11.7373 12.6736 10.3222 12.181L9.48459 11.8895C9.31486 11.8304 9.13745 11.8003 8.95891 11.8003H8.62903Z" fill="currentColor"/>
<path d="M3 7V11" stroke="currentColor" stroke-width="2" stroke-linecap="round" stroke-linejoin="round"/>
<path d="M5 9L1 9" stroke="currentColor" stroke-width="2" stroke-linecap="round" stroke-linejoin="round"/>
</svg>
