<svg width="20" height="20" viewBox="0 0 20 20" fill="none" xmlns="http://www.w3.org/2000/svg">
<path d="M1.66663 17.5C1.66656 16.2169 2.03674 14.9611 2.73275 13.8832C3.42876 12.8053 4.42102 11.9512 5.59046 11.4233C6.7599 10.8954 8.05682 10.7162 9.32559 10.9072C10.5944 11.0982 11.7811 11.6512 12.7433 12.5M15.8333 13.3333V18.3333M18.3333 15.8333H13.3333M12.5 6.66667C12.5 8.96785 10.6345 10.8333 8.33329 10.8333C6.03211 10.8333 4.16663 8.96785 4.16663 6.66667C4.16663 4.36548 6.03211 2.5 8.33329 2.5C10.6345 2.5 12.5 4.36548 12.5 6.66667Z" stroke="currentColor" stroke-width="1.5" stroke-linecap="round" stroke-linejoin="round"/>
</svg>
