<svg width="24" height="24" viewBox="0 0 24 24" fill="none" xmlns="http://www.w3.org/2000/svg">
<path fill-rule="evenodd" clip-rule="evenodd" d="M12 24C5.37258 24 0 18.6274 0 12C0 5.37258 5.37258 0 12 0C18.6274 0 24 5.37258 24 12C24 18.6274 18.6274 24 12 24ZM8.82468 16.4471C10.0473 18.2852 11.8207 19.0546 13.5608 19.0673C15.7439 19.0832 17.4083 18.0432 18.5344 16.8273L18.0948 15.8508C17.1181 17.4591 15.2562 18.3103 13.5385 18.3332C12.043 18.3531 10.3285 17.8243 8.82468 16.4471ZM8.71747 13.3649C8.0382 13.3649 7.56597 13.3649 7.30078 13.3649C6.83195 13.3649 6.29232 13.7957 6.29232 14.1335C6.61021 14.1335 7.97275 14.1335 8.20918 14.1335C8.44562 14.1335 8.48888 14.0178 8.56666 13.7957C8.6672 13.5085 8.71747 13.3649 8.71747 13.3649ZM10.129 13.0464C13.5608 11.7278 17.5262 12.8536 18.8961 16.297C19.9988 14.9531 20.2898 13.4498 20.2898 12.4785C17.935 11.2726 13.6306 10.6455 10.129 13.0464ZM9.58249 12.7328C12.9349 10.4098 17.0761 10.4098 20.2212 11.87C20.146 9.84781 19.6424 8.80959 18.9713 7.89215C14.7945 7.65728 11.0987 9.6336 9.58249 12.7328ZM8.71747 6.01111V12.7961C8.78174 12.7961 8.8446 12.7961 8.90605 12.7961C10.9174 8.50697 15.5917 7.29246 18.4041 7.29246C17.0165 5.54982 14.6417 4.82307 12.885 4.82307C11.3017 4.82307 9.91249 5.21908 8.71747 6.01111ZM8.29796 6.60467C8.29796 5.47985 7.09634 4.68814 6.39335 4.68814C6.1335 4.68814 6.09254 4.71297 6.05183 4.77125C6.0098 4.8314 6.01183 4.91258 6.1335 5.01427C6.23689 5.10068 6.96415 5.69045 7.64731 6.12897C5.67797 7.89947 4.25868 9.249 4.14686 9.35674C4.03504 9.46448 4.05294 9.6336 4.25031 9.6336C4.44769 9.6336 5.70497 9.6336 6.40409 9.6336C7.10322 9.6336 8.29796 8.93638 8.29796 7.73418C8.29796 6.53197 8.29796 7.72948 8.29796 6.60467Z" fill="currentColor"/>
</svg>
