<svg width="16" height="16" viewBox="0 0 16 16" fill="none" xmlns="http://www.w3.org/2000/svg">
<path d="M6 2H2.66667C2.29848 2 2 2.29848 2 2.66667V6C2 6.36819 2.29848 6.66667 2.66667 6.66667H6C6.36819 6.66667 6.66667 6.36819 6.66667 6V2.66667C6.66667 2.29848 6.36819 2 6 2Z" stroke="currentColor" stroke-linecap="round" stroke-linejoin="round"/>
<path d="M13.3333 2H10C9.63181 2 9.33333 2.29848 9.33333 2.66667V6C9.33333 6.36819 9.63181 6.66667 10 6.66667H13.3333C13.7015 6.66667 14 6.36819 14 6V2.66667C14 2.29848 13.7015 2 13.3333 2Z" stroke="currentColor" stroke-linecap="round" stroke-linejoin="round"/>
<path d="M13.3333 9.33333H10C9.63181 9.33333 9.33333 9.63181 9.33333 10V13.3333C9.33333 13.7015 9.63181 14 10 14H13.3333C13.7015 14 14 13.7015 14 13.3333V10C14 9.63181 13.7015 9.33333 13.3333 9.33333Z" stroke="currentColor" stroke-linecap="round" stroke-linejoin="round"/>
<path d="M6 9.33333H2.66667C2.29848 9.33333 2 9.63181 2 10V13.3333C2 13.7015 2.29848 14 2.66667 14H6C6.36819 14 6.66667 13.7015 6.66667 13.3333V10C6.66667 9.63181 6.36819 9.33333 6 9.33333Z" stroke="currentColor" stroke-linecap="round" stroke-linejoin="round"/>
</svg>
