<svg width="20" height="20" viewBox="0 0 20 20" fill="none" xmlns="http://www.w3.org/2000/svg">
    <path d="M17.6612 6.05613L8.38725 15.6473C8.16836 15.8732 7.87179 16 7.56258 16C7.25338 16 6.9568 15.8732 6.73791 15.6473L2.33878 11.0978C2.1213 10.8713 1.99947 10.5649 2 10.2458C2.00053 9.92658 2.12336 9.62063 2.34159 9.39494C2.55982 9.16924 2.85565 9.04221 3.16427 9.04166C3.47289 9.04112 3.76914 9.16711 3.98811 9.39203L7.3228 12.8409C7.38639 12.9067 7.47265 12.9436 7.56258 12.9436C7.65252 12.9436 7.73877 12.9067 7.80237 12.8409L16.0119 4.35037C16.2309 4.12545 16.5271 3.99946 16.8357 4C17.1444 4.00055 17.4402 4.12758 17.6584 4.35328C17.8766 4.57897 17.9995 4.88492 18 5.2041C18.0005 5.52328 17.8787 5.82966 17.6612 6.05613Z" fill="currentColor"/>
</svg>
