<svg width="17" height="16" viewBox="0 0 17 16" fill="none" xmlns="http://www.w3.org/2000/svg">
<path fill-rule="evenodd" clip-rule="evenodd" d="M8.5 16C12.9183 16 16.5 12.4183 16.5 8C16.5 3.58172 12.9183 0 8.5 0C4.08172 0 0.5 3.58172 0.5 8C0.5 12.4183 4.08172 16 8.5 16ZM12.7071 6.20711C13.0976 5.81658 13.0976 5.18342 12.7071 4.79289C12.3166 4.40237 11.6834 4.40237 11.2929 4.79289L7 9.08579L5.70711 7.79289C5.31658 7.40237 4.68342 7.40237 4.29289 7.79289C3.90237 8.18342 3.90237 8.81658 4.29289 9.20711L6.29289 11.2071L7 11.9142L7.70711 11.2071L12.7071 6.20711Z" fill="#27B31A"/>
</svg>
