<svg width="20" height="20" viewBox="0 0 20 20" fill="none" xmlns="http://www.w3.org/2000/svg">
<path fill-rule="evenodd" clip-rule="evenodd" d="M0.803847 3C0 4.3923 0 6.26154 0 10C0 13.7385 0 15.6077 0.803847 17C1.33046 17.9121 2.08788 18.6695 3 19.1962C4.3923 20 6.26154 20 10 20C13.7385 20 15.6077 20 17 19.1962C17.9121 18.6695 18.6695 17.9121 19.1962 17C20 15.6077 20 13.7385 20 10C20 6.26154 20 4.3923 19.1962 3C18.6695 2.08788 17.9121 1.33046 17 0.803847C15.6077 0 13.7385 0 10 0C6.26154 0 4.3923 0 3 0.803847C2.08788 1.33046 1.33046 2.08788 0.803847 3ZM15.7399 7.17267C16.1114 6.76402 16.0813 6.13157 15.6727 5.76006C15.264 5.38855 14.6315 5.41867 14.26 5.82733L8.63634 12.0134L5.73992 8.82733C5.36841 8.41867 4.73596 8.38855 4.3273 8.76006C3.91865 9.13157 3.88853 9.76402 4.26004 10.1727L7.8964 14.1727C8.08592 14.3811 8.3546 14.5 8.63634 14.5C8.91809 14.5 9.18676 14.3811 9.37628 14.1727L15.7399 7.17267Z" fill="currentColor"/>
</svg>
