<svg width="14" height="14" viewBox="0 0 14 14" fill="none" xmlns="http://www.w3.org/2000/svg">
<path fill-rule="evenodd" clip-rule="evenodd" d="M7 13C10.3137 13 13 10.3137 13 7C13 3.68629 10.3137 1 7 1C3.68629 1 1 3.68629 1 7C1 10.3137 3.68629 13 7 13ZM10.3321 5.83211C10.7226 5.44158 10.7226 4.80842 10.3321 4.41789C9.94158 4.02737 9.30842 4.02737 8.91789 4.41789L5.875 7.46079L5.08211 6.66789C4.69158 6.27737 4.05842 6.27737 3.66789 6.66789C3.27737 7.05842 3.27737 7.69158 3.66789 8.08211L5.16789 9.58211L5.875 10.2892L6.58211 9.58211L10.3321 5.83211Z" fill="currentColor"/>
</svg>
