<svg width="16" height="16" viewBox="0 0 16 16" fill="none" xmlns="http://www.w3.org/2000/svg">
<path d="M5.33335 2.66671H4.00002C3.6464 2.66671 3.30726 2.80718 3.05721 3.05723C2.80716 3.30728 2.66669 3.64642 2.66669 4.00004V13.3334C2.66669 13.687 2.80716 14.0261 3.05721 14.2762C3.30726 14.5262 3.6464 14.6667 4.00002 14.6667H12C12.3536 14.6667 12.6928 14.5262 12.9428 14.2762C13.1929 14.0261 13.3334 13.687 13.3334 13.3334M10.6667 2.66671H12C12.3536 2.66671 12.6928 2.80718 12.9428 3.05723C13.1929 3.30728 13.3334 3.64642 13.3334 4.00004V5.33337M7.33335 9.33337H14M14 9.33337L11.3334 6.66671M14 9.33337L11.3334 12M10 1.33337H6.00002C5.82321 1.33337 5.65364 1.40361 5.52862 1.52864C5.40359 1.65366 5.33335 1.82323 5.33335 2.00004V3.33337C5.33335 3.73337 5.60002 4.00004 6.00002 4.00004H10C10.4 4.00004 10.6667 3.73337 10.6667 3.33337V2.00004C10.6667 1.60004 10.4 1.33337 10 1.33337Z" stroke="white" stroke-linecap="round" stroke-linejoin="round"/>
</svg>
