<svg width="20" height="20" viewBox="0 0 20 20" fill="none" xmlns="http://www.w3.org/2000/svg">
<path fill-rule="evenodd" clip-rule="evenodd" d="M2.6224 2.6224C2 3.2448 2 4.24653 2 6.25V8.375C2 10.3785 2 11.3802 2.6224 12.0026C3.12341 12.5036 3.87023 12.6013 5.1875 12.6204L5.18748 12.5094C5.18731 11.6082 5.18714 10.7325 5.28425 10.0101C5.39373 9.19584 5.66046 8.26663 6.4323 7.4948C7.20413 6.72296 8.13334 6.45623 8.94765 6.34675C9.66996 6.24964 10.5457 6.24981 11.4469 6.24998L11.5625 6.25H12.625C12.625 4.24653 12.625 3.2448 12.0026 2.6224C11.3802 2 10.3785 2 8.375 2H6.25C4.24653 2 3.2448 2 2.6224 2.6224ZM12.625 8.375L11.5625 8.375C9.55903 8.375 8.5573 8.375 7.9349 8.9974C7.3125 9.6198 7.3125 10.6215 7.3125 12.625H8.375C10.3785 12.625 11.3802 12.625 12.0026 12.0026C12.625 11.3802 12.625 10.3785 12.625 8.375Z" fill="currentColor"/>
<rect x="7.3125" y="8.375" width="10.625" height="10.625" rx="2.125" fill="currentColor"/>
</svg>
