<svg width="20" height="20" viewBox="0 0 20 20" fill="none" xmlns="http://www.w3.org/2000/svg">
    <path d="M16.6667 7.49854H9.16667C8.24619 7.49854 7.5 8.24473 7.5 9.1652V16.6652C7.5 17.5857 8.24619 18.3319 9.16667 18.3319H16.6667C17.5871 18.3319 18.3333 17.5857 18.3333 16.6652V9.1652C18.3333 8.24473 17.5871 7.49854 16.6667 7.49854Z" stroke="currentColor" stroke-width="2" stroke-linecap="round" stroke-linejoin="round"/>
    <path d="M4.16602 12.4984H3.33268C2.89065 12.4984 2.46673 12.3228 2.15417 12.0102C1.84161 11.6977 1.66602 11.2737 1.66602 10.8317V3.33171C1.66602 2.88968 1.84161 2.46576 2.15417 2.15319C2.46673 1.84063 2.89065 1.66504 3.33268 1.66504H10.8327C11.2747 1.66504 11.6986 1.84063 12.0112 2.15319C12.3238 2.46576 12.4993 2.88968 12.4993 3.33171V4.16504" stroke="currentColor" stroke-width="2" stroke-linecap="round" stroke-linejoin="round"/>
</svg>
