<svg width="20" height="20" viewBox="0 0 20 20" fill="none" xmlns="http://www.w3.org/2000/svg">
    <path fill-rule="evenodd" clip-rule="evenodd" d="M16.7287 3.72873C17.3775 4.37752 17.3775 5.42941 16.7287 6.0782L12.3495 10.4575L16.7287 14.8367C17.3775 15.4855 17.3775 16.5374 16.7287 17.1862C16.0799 17.835 15.028 17.835 14.3793 17.1862L10 12.8069L5.62075 17.1862C4.97195 17.835 3.92006 17.835 3.27127 17.1862C2.62248 16.5374 2.62248 15.4855 3.27127 14.8367L7.65052 10.4575L3.27127 6.0782C2.62248 5.42941 2.62248 4.37752 3.27127 3.72873C3.92006 3.07994 4.97196 3.07994 5.62075 3.72873L10 8.10798L14.3793 3.72873C15.028 3.07994 16.0799 3.07994 16.7287 3.72873Z" fill="currentColor"/>
</svg>
