<svg width="12" height="12" viewBox="0 0 12 12" fill="none" xmlns="http://www.w3.org/2000/svg">
<path fill-rule="evenodd" clip-rule="evenodd" d="M6 12C9.31371 12 12 9.31371 12 6C12 2.68629 9.31371 0 6 0C2.68629 0 0 2.68629 0 6C0 9.31371 2.68629 12 6 12ZM8.5299 3.4704C8.23701 3.17751 7.76214 3.17751 7.46924 3.4704L5.99969 4.93995L4.53015 3.4704C4.23725 3.17751 3.76238 3.17751 3.46949 3.4704C3.17659 3.7633 3.17659 4.23817 3.46949 4.53106L4.93903 6.00061L3.46924 7.4704C3.17635 7.7633 3.17635 8.23817 3.46924 8.53106C3.76214 8.82396 4.23701 8.82396 4.5299 8.53106L5.99969 7.06127L7.46949 8.53106C7.76238 8.82396 8.23725 8.82396 8.53015 8.53106C8.82304 8.23817 8.82304 7.7633 8.53015 7.4704L7.06036 6.00061L8.5299 4.53106C8.8228 4.23817 8.8228 3.7633 8.5299 3.4704Z" fill="currentColor"/>
</svg>
