<svg width="20" height="20" viewBox="0 0 20 20" fill="none" xmlns="http://www.w3.org/2000/svg">
<path d="M9.95195 2C11.6447 2.01666 13.3 2.25635 14.8787 2.9267C15.7493 3.29584 16.5493 3.78098 17.1936 4.51863C18.1194 5.57927 18.1218 6.95971 17.2003 8.02099C16.5671 8.74966 15.783 9.2348 14.9253 9.60266C13.3062 10.2974 11.6079 10.5518 9.86912 10.5467C8.41135 10.5422 6.97996 10.3358 5.59398 9.84748C4.66201 9.51871 3.78526 9.07843 3.04349 8.38565C2.71262 8.08988 2.44148 7.72823 2.24589 7.3218C1.81027 6.37139 1.98022 5.36201 2.68457 4.54362C3.33185 3.78996 4.14357 3.29777 5.02706 2.92414C6.60448 2.25635 8.25981 2.01602 9.95195 2Z" fill="currentColor"/>
<path d="M17.6065 12.8453C17.8519 13.474 17.8348 14.0585 17.5985 14.6334C17.3261 15.2979 16.8543 15.7914 16.2997 16.2022C15.1953 17.0212 13.9406 17.4615 12.624 17.7198C10.4662 18.1434 8.3163 18.0954 6.18793 17.5147C5.01607 17.1943 3.91231 16.7168 2.98096 15.8792C2.53982 15.4812 2.18029 15.0172 1.99929 14.4276C1.8344 13.9135 1.85624 13.354 2.06065 12.8556C2.14593 13.0145 2.20912 13.1491 2.28643 13.2734C2.80549 14.1066 3.56443 14.6411 4.40253 15.064C5.59402 15.6652 6.86344 15.9747 8.17273 16.1272C9.83301 16.3276 11.5139 16.2294 13.1424 15.8369C14.1854 15.5806 15.1855 15.2025 16.0874 14.5853C16.72 14.1521 17.2593 13.6259 17.6065 12.8453Z" fill="currentColor"/>
<path d="M17.6306 9.15621C17.9288 9.9778 17.8245 10.6981 17.4005 11.3768C16.8986 12.1798 16.1734 12.7079 15.3642 13.1136C13.3395 14.13 11.1823 14.3953 8.96493 14.2813C7.79589 14.2278 6.6396 14.0052 5.52911 13.6199C4.42473 13.2296 3.38601 12.7073 2.59761 11.7703C2.02641 11.0923 1.75154 10.3175 1.99941 9.40679C2.01782 9.33757 2.0442 9.27092 2.07794 9.17095C2.16384 9.33052 2.22826 9.46383 2.30495 9.5888C2.82094 10.4277 3.57989 10.959 4.41737 11.3832C5.7825 12.0709 7.23966 12.3849 8.74038 12.5009C10.2322 12.6247 11.7334 12.506 13.1904 12.1491C14.2463 11.887 15.2543 11.4999 16.1636 10.8673C16.7796 10.4328 17.2999 9.91372 17.6306 9.15621Z" fill="currentColor"/>
</svg>
