<svg width="20" height="20" viewBox="0 0 20 20" fill="none" xmlns="http://www.w3.org/2000/svg">
<path d="M17 5H13.8V4C13.8 2.9 13.8 2.17 13.21 1.58C12.63 1 11.9 1 10.8 1H9.2C8.1 1 7.37 1 6.79 1.59C6.2 2.18 6.2 2.9 6.2 4V5H3C2.45 5 2 5.45 2 6C2 6.55 2.45 7 3 7H3.4V14C3.4 16.09 3.4 17.24 4.28 18.12C5.16 19 6.31 19 8.4 19H11.6C13.69 19 14.84 19 15.72 18.12C16.6 17.24 16.6 16.09 16.6 14V7H17C17.55 7 18 6.55 18 6C18 5.45 17.55 5 17 5ZM9 14C9 14.55 8.55 15 8 15C7.45 15 7 14.55 7 14V10C7 9.45 7.45 9 8 9C8.55 9 9 9.45 9 10V14ZM13 14C13 14.55 12.55 15 12 15C11.45 15 11 14.55 11 14V10C11 9.45 11.45 9 12 9C12.55 9 13 9.45 13 10V14Z" fill="currentColor"/>
</svg>
