<svg width="20" height="20" viewBox="0 0 20 20" fill="none" xmlns="http://www.w3.org/2000/svg">
<path d="M4 18H17" stroke="currentColor" stroke-width="2.5" stroke-linecap="round"/>
<path d="M15.3255 2.19545C13.8987 0.993101 12.2108 0.63892 11.5673 1.40321L10.3457 2.84789L15.5493 7.18195L16.7429 5.77454C17.3957 5.01026 16.7616 3.40712 15.3348 2.20477L15.3255 2.19545Z" fill="currentColor"/>
<path d="M9.47844 3.875L4.57326 9.6817C4.27485 10.0359 4.11632 10.2223 4.05104 10.4553C3.98576 10.6883 3.99509 10.9773 4.01374 11.5458L4.08834 13.4192C4.12564 14.2861 4.14429 14.7241 4.49866 15.0317C4.85303 15.3393 5.29132 15.274 6.15859 15.1622L8.01434 14.9199C8.5832 14.8453 8.86296 14.808 9.08677 14.6962C9.31058 14.5843 9.45978 14.4072 9.7582 14.053L14.6913 8.20906L9.48776 3.875H9.47844Z" fill="currentColor"/>
</svg>
