<svg width="20" height="20" viewBox="0 0 20 20" fill="none" xmlns="http://www.w3.org/2000/svg">
<path d="M10 16.6667H17.5M12.5 4.16667L15 6.66667M13.6467 3.01832C13.9784 2.68658 14.4283 2.50021 14.8975 2.50021C15.3666 2.50021 15.8166 2.68658 16.1483 3.01832C16.4801 3.35006 16.6664 3.8 16.6664 4.26915C16.6664 4.73831 16.4801 5.18824 16.1483 5.51998L6.13999 15.5292C5.94174 15.7274 5.69668 15.8724 5.42749 15.9508L3.03416 16.6492C2.96245 16.6701 2.88644 16.6713 2.81408 16.6528C2.74172 16.6342 2.67568 16.5966 2.62286 16.5438C2.57005 16.491 2.5324 16.4249 2.51386 16.3526C2.49532 16.2802 2.49658 16.2042 2.51749 16.1325L3.21582 13.7392C3.29434 13.4703 3.43936 13.2255 3.63749 13.0275L13.6467 3.01832Z" stroke="currentColor" stroke-width="1.5" stroke-linecap="round" stroke-linejoin="round"/>
</svg>
