<svg width="56" height="56" viewBox="0 0 56 56" fill="none" xmlns="http://www.w3.org/2000/svg">
<rect x="36.9032" y="33.4555" width="17.5568" height="1.89429" rx="0.947143" transform="rotate(42.6298 36.9032 33.4555)" fill="currentColor"/>
<path d="M24.3966 39.7934C33.1761 39.7934 40.2933 32.6762 40.2933 23.8967C40.2933 15.1172 33.1761 8 24.3966 8C15.6172 8 8.5 15.1172 8.5 23.8967C8.5 32.6762 15.6172 39.7934 24.3966 39.7934Z" stroke="currentColor" stroke-width="1.5" stroke-linecap="round" stroke-linejoin="round"/>
<path fill-rule="evenodd" clip-rule="evenodd" d="M21.8923 28.4603C21.4674 28.9062 20.7615 28.9233 20.3156 28.4984C19.8697 28.0736 19.8527 27.3677 20.2775 26.9217L22.7322 24.3454L20.1537 21.8886C19.7078 21.4638 19.6907 20.7579 20.1155 20.312C20.5404 19.866 21.2463 19.849 21.6922 20.2738L24.2707 22.7306L26.7274 20.1521C27.1523 19.7062 27.8582 19.6892 28.3041 20.114C28.75 20.5389 28.7671 21.2448 28.3422 21.6907L25.8855 24.2691L28.4618 26.7237C28.9077 27.1486 28.9248 27.8545 28.4999 28.3004C28.0751 28.7463 27.3692 28.7634 26.9233 28.3385L24.347 25.8839L21.8923 28.4603Z" fill="currentColor"/>
</svg>
