<svg width="20" height="20" viewBox="0 0 20 20" fill="none" xmlns="http://www.w3.org/2000/svg">
    <path d="M14.9507 14.9507C13.5261 16.0365 11.7916 16.6381 10.0007 16.6673C4.16732 16.6673 0.833984 10.0007 0.833984 10.0007C1.87056 8.06892 3.30826 6.38118 5.05065 5.05067M8.25065 3.53401C8.82426 3.39974 9.41154 3.33262 10.0007 3.33401C15.834 3.33401 19.1673 10.0007 19.1673 10.0007C18.6615 10.947 18.0582 11.838 17.3673 12.659M11.7673 11.7673C11.5384 12.013 11.2624 12.21 10.9558 12.3466C10.6491 12.4832 10.3181 12.5567 9.98239 12.5626C9.64672 12.5686 9.31329 12.5068 9.00199 12.3811C8.6907 12.2553 8.40792 12.0682 8.17052 11.8308C7.93313 11.5934 7.74598 11.3106 7.62024 10.9993C7.49451 10.688 7.43276 10.3546 7.43868 10.0189C7.4446 9.68325 7.51808 9.35221 7.65472 9.04554C7.79135 8.73888 7.98836 8.46288 8.23398 8.23401" stroke="currentColor" stroke-width="2" stroke-linecap="round" stroke-linejoin="round"/>
    <path d="M0.833984 0.833984L19.1673 19.1673" stroke="currentColor" stroke-width="2" stroke-linecap="round" stroke-linejoin="round"/>
</svg>
