<svg width="20" height="20" viewBox="0 0 20 20" fill="none" xmlns="http://www.w3.org/2000/svg">
<path d="M8.23326 8.23323C7.98763 8.4621 7.79063 8.7381 7.65399 9.04476C7.51735 9.35143 7.44387 9.68247 7.43795 10.0181C7.43203 10.3538 7.49378 10.6873 7.61951 10.9986C7.74525 11.3098 7.9324 11.5926 8.16979 11.83C8.40719 12.0674 8.68997 12.2546 9.00126 12.3803C9.31256 12.506 9.64599 12.5678 9.98166 12.5619C10.3173 12.5559 10.6484 12.4825 10.955 12.3458C11.2617 12.2092 11.5377 12.0122 11.7666 11.7666M8.94167 4.23332C9.29276 4.18958 9.6462 4.16732 10 4.16666C15.8333 4.16666 18.3333 9.99999 18.3333 9.99999C17.9608 10.7976 17.4935 11.5474 16.9417 12.2333M5.50835 5.50841C3.85106 6.63727 2.52491 8.18779 1.66669 10.0001C1.66669 10.0001 4.16669 15.8334 10 15.8334C11.5966 15.8377 13.159 15.371 14.4917 14.4917M1.66669 1.66666L18.3334 18.3333" stroke="currentColor" stroke-width="1.5" stroke-linecap="round" stroke-linejoin="round"/>
</svg>
