<svg width="20" height="20" viewBox="0 0 20 20" fill="none" xmlns="http://www.w3.org/2000/svg">
<path d="M4.21249 2.70486C4.15761 2.64299 4.09099 2.59263 4.01649 2.5567C3.942 2.52077 3.86111 2.49997 3.77853 2.49553C3.69594 2.49109 3.61329 2.50308 3.53537 2.53081C3.45746 2.55855 3.38582 2.60147 3.32461 2.6571C3.2634 2.71272 3.21384 2.77994 3.17881 2.85486C3.14377 2.92978 3.12395 3.0109 3.1205 3.09354C3.11704 3.17617 3.13003 3.25867 3.15869 3.33625C3.18736 3.41383 3.23114 3.48495 3.28749 3.54549L4.79062 5.19939C1.95312 6.9408 0.732805 9.62517 0.678899 9.74705C0.643362 9.82698 0.625 9.91348 0.625 10.001C0.625 10.0884 0.643362 10.1749 0.678899 10.2549C0.706243 10.3166 1.36796 11.7838 2.83905 13.2549C4.79921 15.2142 7.27499 16.2502 9.99999 16.2502C11.4005 16.2582 12.7868 15.9698 14.068 15.4041L15.7867 17.2955C15.8416 17.3574 15.9082 17.4077 15.9827 17.4437C16.0572 17.4796 16.1381 17.5004 16.2207 17.5048C16.3033 17.5093 16.3859 17.4973 16.4638 17.4695C16.5417 17.4418 16.6134 17.3989 16.6746 17.3433C16.7358 17.2876 16.7854 17.2204 16.8204 17.1455C16.8554 17.0706 16.8753 16.9894 16.8787 16.9068C16.8822 16.8242 16.8692 16.7417 16.8405 16.6641C16.8118 16.5865 16.7681 16.5154 16.7117 16.4549L4.21249 2.70486ZM11.1656 12.2119C10.6754 12.4698 10.1134 12.5576 9.56783 12.4615C9.02229 12.3653 8.52413 12.0907 8.15157 11.6808C7.77901 11.2709 7.55314 10.7488 7.50945 10.1966C7.46575 9.64438 7.6067 9.09329 7.91015 8.62986L11.1656 12.2119ZM19.3211 10.2549C19.2883 10.3283 18.4969 12.0806 16.7148 13.6767C16.592 13.7869 16.4306 13.8441 16.2658 13.8358C16.101 13.8274 15.9462 13.7543 15.8351 13.6322L7.92187 4.92752C7.84617 4.84445 7.79426 4.7425 7.77163 4.63241C7.74899 4.52233 7.75646 4.40817 7.79325 4.30198C7.83004 4.19578 7.89478 4.10146 7.98066 4.02896C8.06654 3.95646 8.17038 3.90846 8.28124 3.89002C8.84934 3.79622 9.4242 3.74944 9.99999 3.75017C12.725 3.75017 15.2008 4.78611 17.1609 6.74627C18.632 8.21736 19.2937 9.68533 19.3211 9.74705C19.3566 9.82698 19.375 9.91348 19.375 10.001C19.375 10.0884 19.3566 10.1749 19.3211 10.2549Z" fill="currentColor"/>
</svg>
