<svg width="20" height="20" viewBox="0 0 20 20" fill="none" xmlns="http://www.w3.org/2000/svg">
<path fill-rule="evenodd" clip-rule="evenodd" d="M9.96942 0.242188C4.46483 0.242188 0 4.70702 0 10.2116C0 14.6153 2.87462 18.3462 6.78899 19.6917C7.27829 19.7529 7.46177 19.4471 7.46177 19.2024C7.46177 18.9578 7.46177 18.3462 7.46177 17.4899C4.70948 18.1015 4.09786 16.1443 4.09786 16.1443C3.66972 14.9823 2.99694 14.6764 2.99694 14.6764C2.07951 14.0648 3.0581 14.0648 3.0581 14.0648C4.0367 14.126 4.58716 15.1046 4.58716 15.1046C5.50459 16.6336 6.91131 16.2055 7.46177 15.9608C7.52294 15.2881 7.82875 14.8599 8.07339 14.6153C5.87156 14.3706 3.5474 13.5144 3.5474 9.66115C3.5474 8.56023 3.91437 7.70396 4.58716 6.97002C4.52599 6.78653 4.15902 5.74678 4.70948 4.40121C4.70948 4.40121 5.56575 4.15656 7.46177 5.44096C8.25688 5.19632 9.11315 5.13515 9.96942 5.13515C10.8257 5.13515 11.682 5.25748 12.4771 5.44096C14.3731 4.15656 15.2294 4.40121 15.2294 4.40121C15.7798 5.74678 15.4128 6.78653 15.3517 7.03118C15.9633 7.70396 16.3914 8.62139 16.3914 9.72231C16.3914 13.5755 14.0673 14.3706 11.8654 14.6153C12.2324 14.9211 12.5382 15.5327 12.5382 16.4501C12.5382 17.7957 12.5382 18.8355 12.5382 19.2024C12.5382 19.4471 12.7217 19.7529 13.211 19.6917C17.1865 18.3462 20 14.6153 20 10.2116C19.9388 4.70702 15.474 0.242188 9.96942 0.242188Z" fill="#161514"/>
</svg>
