<svg width="18" height="18" viewBox="0 0 18 18" fill="none" xmlns="http://www.w3.org/2000/svg">
    <path
        d="M1.92857 7.07138C1.92857 3.16597 5.09456 0 9 0C12.9054 0 16.0714 3.16597 16.0714 7.07138V7.79523C17.1805 8.08072 18 9.08749 18 10.2856V12.8571C18 14.2772 16.8487 15.4285 15.4286 15.4285C15.2803 15.4285 15.135 15.4159 14.9936 15.3918C14.1134 17.0653 12.32 18.0919 10.4142 17.9935C10.372 17.9978 10.3291 17.9999 10.2857 17.9999H9C8.2899 17.9999 7.71429 17.4243 7.71429 16.7142C7.71429 16.0041 8.2899 15.4285 9 15.4285H10.2857C10.957 15.4285 11.5082 15.943 11.5663 16.5992C12.5132 16.3544 13.3365 15.7314 13.8185 14.8621C13.2323 14.3908 12.8571 13.6678 12.8571 12.8571V10.2856C12.8571 9.08749 13.6767 8.08072 14.7857 7.79523V7.07138C14.7857 3.87604 12.1954 1.28571 9 1.28571C5.80461 1.28571 3.21429 3.87604 3.21429 7.07138V7.79523C4.32336 8.08072 5.14286 9.08749 5.14286 10.2856V12.8571C5.14286 14.2772 3.99159 15.4285 2.57143 15.4285C1.15127 15.4285 0 14.2772 0 12.8571V10.2856C0 9.08749 0.819495 8.08072 1.92857 7.79523V7.07138Z"
        fill="#222222" />
</svg>
    