<svg width="16" height="16" viewBox="0 0 16 16" fill="none" xmlns="http://www.w3.org/2000/svg">
  <g fill="currentColor">
    <path d="m3.37 13.36.44-.6-.44.6Zm-.73-.73.6-.44-.6.44Zm10.72 0-.6-.44.6.44Zm-.73.73-.44-.6.44.6Zm0-10.72-.44.6.44-.6Zm.73.73-.6.44.6-.44Zm-9.99-.73.44.6-.44-.6Zm-.73.73.6.44-.6-.44Zm6.11 3.96a.75.75 0 0 0-1.5 0h1.5Zm-1.5 4a.75.75 0 0 0 1.5 0h-1.5ZM8 13.25c-1.27 0-2.16 0-2.84-.08a2.67 2.67 0 0 1-1.35-.41l-.88 1.21c.59.43 1.27.61 2.07.7.78.08 1.77.08 3 .08v-1.5ZM1.25 8c0 1.23 0 2.22.08 3 .09.8.27 1.48.7 2.07l1.21-.88a2.67 2.67 0 0 1-.41-1.35c-.08-.68-.08-1.57-.08-2.84h-1.5Zm2.56 4.76a2.58 2.58 0 0 1-.57-.57l-1.21.88c.25.34.56.65.9.9l.88-1.21ZM13.25 8c0 1.27 0 2.16-.08 2.84-.07.67-.2 1.06-.41 1.35l1.21.88c.43-.6.61-1.27.7-2.07.08-.78.08-1.77.08-3h-1.5ZM8 14.75c1.23 0 2.22 0 3-.08.8-.09 1.48-.27 2.07-.7l-.88-1.21c-.3.2-.68.34-1.35.41-.68.08-1.57.08-2.84.08v1.5Zm4.76-2.56c-.16.21-.36.4-.57.57l.88 1.21c.34-.25.65-.56.9-.9l-1.21-.88ZM8 2.75c1.27 0 2.16 0 2.84.08.67.07 1.06.2 1.35.41l.88-1.21a4.13 4.13 0 0 0-2.07-.7c-.78-.08-1.77-.08-3-.08v1.5ZM14.75 8c0-1.23 0-2.22-.08-3a4.13 4.13 0 0 0-.7-2.07l-1.21.88c.2.3.34.68.41 1.35.08.68.08 1.57.08 2.84h1.5Zm-2.56-4.76c.21.16.4.36.57.57l1.21-.88a4.09 4.09 0 0 0-.9-.9l-.88 1.21ZM8 1.25c-1.23 0-2.22 0-3 .08-.8.09-1.48.27-2.07.7l.88 1.21c.3-.2.68-.34 1.35-.41.68-.08 1.57-.08 2.84-.08v-1.5ZM2.75 8c0-1.27 0-2.16.08-2.84.07-.67.2-1.06.41-1.35l-1.21-.88c-.43.59-.61 1.27-.7 2.07-.08.78-.08 1.77-.08 3h1.5Zm.18-5.97c-.34.25-.65.56-.9.9l1.21.88c.16-.21.36-.4.57-.57l-.88-1.21Zm4.32 5.3v2h1.5v-2h-1.5Zm0 2v2h1.5v-2h-1.5Z"/>
    <path d="M8.25 5a.25.25 0 1 1-.5 0 .25.25 0 0 1 .5 0Z" stroke="currentColor" stroke-width="1.5"/>
  </g>
</svg>
