<svg width="16" height="16" viewBox="0 0 16 16" fill="none" xmlns="http://www.w3.org/2000/svg">
<g clip-path="url(#clip0_598_4009)">
<path d="M11.0007 5.33332C11.1847 5.33332 11.334 5.18408 11.334 4.99999C11.334 4.81589 11.1847 4.66666 11.0007 4.66666C10.8166 4.66666 10.6673 4.81589 10.6673 4.99999C10.6673 5.18408 10.8166 5.33332 11.0007 5.33332Z" fill="#9497B8"/>
<path d="M1.33398 11.9999V13.9999C1.33398 14.3999 1.60065 14.6666 2.00065 14.6666H4.66732V12.6666H6.66732V10.6666H8.00065L8.93398 9.73327C9.86054 10.056 10.8692 10.0548 11.795 9.72977C12.7207 9.40474 13.5088 8.77516 14.0302 7.94402C14.5517 7.11288 14.7756 6.12938 14.6654 5.15443C14.5552 4.17947 14.1174 3.27077 13.4236 2.57698C12.7298 1.88319 11.8211 1.44539 10.8462 1.33519C9.8712 1.225 8.88771 1.44893 8.05657 1.97036C7.22543 2.49179 6.59585 3.27985 6.27082 4.20561C5.94579 5.13138 5.94455 6.14004 6.26732 7.0666L1.33398 11.9999Z" stroke="#9497B8" stroke-width="1.5" stroke-linecap="round" stroke-linejoin="round"/>
<path d="M11.0007 5.33332C11.1847 5.33332 11.334 5.18408 11.334 4.99999C11.334 4.81589 11.1847 4.66666 11.0007 4.66666C10.8166 4.66666 10.6673 4.81589 10.6673 4.99999C10.6673 5.18408 10.8166 5.33332 11.0007 5.33332Z" stroke="#9497B8" stroke-width="1.5" stroke-linecap="round" stroke-linejoin="round"/>
</g>
<defs>
<clipPath id="clip0_598_4009">
<rect width="16" height="16" fill="white"/>
</clipPath>
</defs>
</svg>
