<svg width="20" height="20" viewBox="0 0 20 20" fill="none" xmlns="http://www.w3.org/2000/svg">
<path d="M18 7.04613C18 6.36489 17.8631 5.7047 17.5951 5.08087C17.335 4.48001 16.9633 3.94038 16.49 3.47729C16.0166 3.0142 15.465 2.65062 14.8509 2.39611C14.2152 2.13204 13.5384 2 12.8421 2C12.1457 2 11.4709 2.13395 10.8333 2.39611C10.2191 2.65062 9.66752 3.0142 9.19417 3.47729C8.72082 3.94038 8.34918 4.48001 8.08904 5.08087C7.81911 5.70279 7.68415 6.36489 7.68415 7.04613C7.68415 7.89767 7.90322 8.732 8.31984 9.47447L2.14481 15.5099C2.00202 15.6496 1.95703 15.862 2.04505 16.0629C2.06266 16.105 2.092 16.1433 2.12525 16.1758L3.50813 17.5287C3.54138 17.5613 3.5805 17.5881 3.62353 17.6072C3.82891 17.6933 4.04602 17.6512 4.18881 17.5096L5.04357 16.6734L6.27389 17.877C6.30714 17.9095 6.34626 17.9363 6.38927 17.9555C6.59465 18.0416 6.81178 17.9995 6.95455 17.8579L8.31787 16.5241C8.35112 16.4916 8.3785 16.4533 8.39806 16.4112C8.48608 16.2103 8.44305 15.9979 8.29831 15.8582L7.08756 14.6737L10.358 11.4723C11.1149 11.8798 11.9697 12.0942 12.8401 12.0942C13.5364 12.0942 14.2112 11.9602 14.8489 11.6981C15.4631 11.4435 16.0147 11.08 16.488 10.6169C16.9613 10.1538 17.333 9.61418 17.5931 9.01329C17.8631 8.38755 18 7.72736 18 7.04613ZM14.6494 8.8162C14.1663 9.28885 13.5228 9.5491 12.8401 9.5491C12.1575 9.5491 11.514 9.28885 11.0309 8.8162C10.5477 8.34354 10.2798 7.71397 10.2798 7.04613C10.2798 6.37637 10.5458 5.74872 11.0289 5.27606C11.512 4.8034 12.1556 4.54316 12.8382 4.54316C13.5208 4.54316 14.1643 4.8034 14.6475 5.27606C15.1306 5.74872 15.3966 6.37829 15.3966 7.04613C15.4005 7.71397 15.1345 8.34354 14.6494 8.8162Z" fill="currentColor"/>
</svg>
