<svg width="20" height="20" viewBox="0 0 20 20" fill="none" xmlns="http://www.w3.org/2000/svg">
<path d="M12.9167 6.25L14.8334 8.16667C14.9891 8.31936 15.1986 8.40489 15.4167 8.40489C15.6348 8.40489 15.8442 8.31936 16 8.16667L17.75 6.41667C17.9027 6.2609 17.9882 6.05147 17.9882 5.83334C17.9882 5.61521 17.9027 5.40578 17.75 5.25001L15.8334 3.33334M17.4999 1.66667L9.49994 9.66667M10.8334 12.9167C10.8334 15.448 8.78133 17.5 6.25002 17.5C3.71872 17.5 1.66669 15.448 1.66669 12.9167C1.66669 10.3854 3.71872 8.33334 6.25002 8.33334C8.78133 8.33334 10.8334 10.3854 10.8334 12.9167Z" stroke="currentColor" stroke-width="1.5" stroke-linecap="round" stroke-linejoin="round"/>
</svg>
