<svg width="20" height="20" viewBox="0 0 20 20" fill="none" xmlns="http://www.w3.org/2000/svg">
  <path fill-rule="evenodd" clip-rule="evenodd" d="M2.8 2.5a.53.53 0 0 0-.52.53v2.7c0 .28.24.52.53.52h2.7c.29 0 .52-.24.52-.53v-2.7a.53.53 0 0 0-.52-.52H3.8Zm5.63 0a.53.53 0 0 0-.52.53v8.7c0 .29.23.52.52.52h8.33c.29 0 .52-.23.52-.52v-8.7a.53.53 0 0 0-.52-.53H9.43ZM2.28 8.65c0-.29.24-.53.53-.53h2.7c.29 0 .52.24.52.53v2.7c0 .29-.23.53-.52.53H2.8a.53.53 0 0 1-.53-.53v-2.7Zm.53 5.1a.53.53 0 0 0-.53.53v2.7c0 .28.24.52.53.52h2.7c.29 0 .52-.24.52-.53v-2.7a.53.53 0 0 0-.52-.52H3.8Zm5.1.53c0-.3.23-.53.52-.53h2.7c.3 0 .53.23.53.53v2.7c0 .28-.24.52-.53.52h-2.7a.53.53 0 0 1-.52-.53v-2.7Zm6.15-.53a.53.53 0 0 0-.53.53v2.7c0 .28.24.52.53.52h2.7c.29 0 .52-.24.52-.53v-2.7a.53.53 0 0 0-.52-.52h-2.7Z" fill="#2B63F1"/>
</svg>
