<svg width="16" height="16" viewBox="0 0 16 16" fill="none" xmlns="http://www.w3.org/2000/svg">
<path d="M9.33333 2.66667H14M9.33333 6H14M9.33333 10H14M9.33333 13.3333H14M2.66667 2H6C6.36819 2 6.66667 2.29848 6.66667 2.66667V6C6.66667 6.36819 6.36819 6.66667 6 6.66667H2.66667C2.29848 6.66667 2 6.36819 2 6V2.66667C2 2.29848 2.29848 2 2.66667 2ZM2.66667 9.33333H6C6.36819 9.33333 6.66667 9.63181 6.66667 10V13.3333C6.66667 13.7015 6.36819 14 6 14H2.66667C2.29848 14 2 13.7015 2 13.3333V10C2 9.63181 2.29848 9.33333 2.66667 9.33333Z" stroke="currentColor" stroke-linecap="round" stroke-linejoin="round"/>
</svg>
