<svg width="73" height="72" viewBox="0 0 73 72" fill="none" xmlns="http://www.w3.org/2000/svg">
    <path d="M36.25 13.3747C36.25 12.6155 36.866 11.9959 37.6239 12.0398C41.8385 12.2839 45.9209 13.648 49.4448 16.0026C53.3505 18.6123 56.3946 22.3215 58.1921 26.6613C59.9897 31.001 60.46 35.7763 59.5437 40.3834C58.6273 44.9904 56.3653 49.2223 53.0438 52.5438C49.7223 55.8653 45.4904 58.1273 40.8834 59.0437C36.2763 59.96 31.501 59.4897 27.1613 57.6921C22.8215 55.8946 19.1123 52.8505 16.5026 48.9448C14.148 45.4209 12.7839 41.3385 12.5398 37.1239C12.4959 36.366 13.1155 35.75 13.8747 35.75C14.6339 35.75 15.2446 36.3662 15.2943 37.1238C15.5349 40.7941 16.7362 44.3457 18.7886 47.4173C21.0962 50.8709 24.376 53.5626 28.2134 55.1521C32.0508 56.7416 36.2733 57.1575 40.347 56.3471C44.4208 55.5368 48.1627 53.5367 51.0997 50.5997C54.0367 47.6627 56.0368 43.9208 56.8471 39.847C57.6575 35.7733 57.2416 31.5508 55.6521 27.7134C54.0626 23.876 51.3709 20.5962 47.9173 18.2886C44.8457 16.2362 41.2941 15.0349 37.6238 14.7943C36.8662 14.7446 36.25 14.1339 36.25 13.3747Z" fill="currentColor"/>
</svg>
