<svg width="20" height="20" viewBox="0 0 20 20" fill="none" xmlns="http://www.w3.org/2000/svg">
<path d="M5.83333 8.33333V5.83333C5.83333 4.72827 6.27232 3.66846 7.05372 2.88706C7.83512 2.10565 8.89493 1.66667 10 1.66667C11.1051 1.66667 12.1649 2.10565 12.9463 2.88706C13.7277 3.66846 14.1667 4.72827 14.1667 5.83333V8.33333M10.8333 13.3333C10.8333 13.7936 10.4602 14.1667 10 14.1667C9.53976 14.1667 9.16667 13.7936 9.16667 13.3333C9.16667 12.8731 9.53976 12.5 10 12.5C10.4602 12.5 10.8333 12.8731 10.8333 13.3333ZM4.16667 8.33333H15.8333C16.7538 8.33333 17.5 9.07953 17.5 10V16.6667C17.5 17.5871 16.7538 18.3333 15.8333 18.3333H4.16667C3.24619 18.3333 2.5 17.5871 2.5 16.6667V10C2.5 9.07953 3.24619 8.33333 4.16667 8.33333Z" stroke="currentColor" stroke-width="1.5" stroke-linecap="round" stroke-linejoin="round"/>
</svg>
