<svg width="20" height="20" viewBox="0 0 20 20" fill="none" xmlns="http://www.w3.org/2000/svg">
<path fill-rule="evenodd" clip-rule="evenodd" d="M12.0035 5.5C12.0035 5.04874 11.8803 4.3691 11.5523 3.83789C11.2572 3.35998 10.8073 3 10.0018 3V1C11.5977 1 12.6486 1.80669 13.254 2.78711C13.8265 3.71423 14.0035 4.78459 14.0035 5.5V7.0207C15.0932 7.06126 15.7969 7.18129 16.3621 7.53647C16.8073 7.81621 17.1838 8.19267 17.4635 8.63789C18 9.49167 18 10.6611 18 13C18 15.3389 18 16.5083 17.4635 17.3621C17.1838 17.8073 16.8073 18.1838 16.3621 18.4635C15.5083 19 14.3389 19 12 19H8C5.66111 19 4.49167 19 3.63789 18.4635C3.19267 18.1838 2.81621 17.8073 2.53647 17.3621C2 16.5083 2 15.3389 2 13C2 10.6611 2 9.49167 2.53647 8.63789C2.81621 8.19267 3.19267 7.81621 3.63789 7.53647C4.20375 7.18091 4.90826 7.06101 6 7.02057V5.50098C6 4.78557 6.17699 3.71521 6.74946 2.78809C7.35485 1.80766 8.40597 1 10.0018 1V3C9.1964 3 8.74629 3.36096 8.45119 3.83887C8.12317 4.37008 8 5.04972 8 5.50098V7H12H12.0035V5.5ZM8.29289 11.2929C8 11.5858 8 12.0572 8 13C8 13.9428 8 14.4142 8.29289 14.7071C8.58579 15 9.05719 15 10 15C10.9428 15 11.4142 15 11.7071 14.7071C12 14.4142 12 13.9428 12 13C12 12.0572 12 11.5858 11.7071 11.2929C11.4142 11 10.9428 11 10 11C9.05719 11 8.58579 11 8.29289 11.2929Z" fill="currentColor"/>
</svg>
