<svg xmlns="http://www.w3.org/2000/svg" width="44" height="44" viewBox="0 0 44 44" fill="none">
  <circle cx="22" cy="22" r="22" fill="#fff" />
  <g transform="translate(12 12)">
      <path d="M1.28708 17.2836L0.00174165 15.9983L3.31089 12.6891C4.79245 11.2076 4.79245 8.79654 3.31089 7.31498L0 4.00409L1.28534 2.71875L4.59623 6.02963C6.78665 8.22006 6.78665 11.7841 4.59623 13.9745L1.28708 17.2836Z" fill="url(#paint0_linear_2419_24812)"/>
      <path d="M15.9965 20.0029L12.6874 16.6938C11.2058 15.2122 8.7948 15.2122 7.31323 16.6938L4.00409 20.0029L2.71875 18.7176L6.02789 15.4084C8.21831 13.218 11.7823 13.218 13.9727 15.4084L17.2819 18.7176L15.9965 20.0029Z" fill="url(#paint1_linear_2419_24812)"/>
      <path d="M18.7156 17.2819L15.4065 13.9727C13.2161 11.7823 13.2161 8.21831 15.4065 6.02789L18.7156 2.71875L20.001 4.00409L16.6918 7.31323C15.2103 8.7948 15.2103 11.2058 16.6918 12.6874L20.001 15.9965L18.7156 17.2819Z" fill="url(#paint2_linear_2419_24812)"/>
      <path d="M9.99982 6.23919C8.56121 6.23919 7.1226 5.69173 6.02768 4.59623L2.7168 1.28534L4.00214 0L7.31302 3.31089C8.79459 4.79245 11.2056 4.79245 12.6872 3.31089L15.9963 0.00174165L17.2817 1.28708L13.9725 4.59623C12.877 5.69115 11.439 6.23919 10.0004 6.23919H9.99982Z" fill="url(#paint3_linear_2419_24812)"/>
  </g>
  <defs>
    <linearGradient id="paint0_linear_2419_24812" x1="3.1193" y1="17.2047" x2="3.1193" y2="2.82267" gradientUnits="userSpaceOnUse">
      <stop stop-color="#00B2E3" stop-opacity="0"/>
      <stop offset="0.07" stop-color="#05B3E3" stop-opacity="0.03"/>
      <stop offset="0.19" stop-color="#13B7E3" stop-opacity="0.13"/>
      <stop offset="0.33" stop-color="#2ABDE4" stop-opacity="0.28"/>
      <stop offset="0.49" stop-color="#4AC5E5" stop-opacity="0.49"/>
      <stop offset="0.66" stop-color="#73D0E6" stop-opacity="0.75"/>
      <stop offset="0.81" stop-color="#9ADBE8"/>
    </linearGradient>
    <linearGradient id="paint1_linear_2419_24812" x1="17.2273" y1="16.8842" x2="2.74604" y2="16.8842" gradientUnits="userSpaceOnUse">
      <stop stop-color="#00B2E3" stop-opacity="0"/>
      <stop offset="0.07" stop-color="#05B3E3" stop-opacity="0.03"/>
      <stop offset="0.19" stop-color="#13B7E3" stop-opacity="0.13"/>
      <stop offset="0.33" stop-color="#2ABDE4" stop-opacity="0.28"/>
      <stop offset="0.49" stop-color="#4AC5E5" stop-opacity="0.49"/>
      <stop offset="0.66" stop-color="#73D0E6" stop-opacity="0.75"/>
      <stop offset="0.81" stop-color="#9ADBE8"/>
    </linearGradient>
    <linearGradient id="paint2_linear_2419_24812" x1="16.8822" y1="2.74197" x2="16.8822" y2="17.1176" gradientUnits="userSpaceOnUse">
      <stop stop-color="#00B2E3" stop-opacity="0"/>
      <stop offset="0.07" stop-color="#05B3E3" stop-opacity="0.03"/>
      <stop offset="0.19" stop-color="#13B7E3" stop-opacity="0.13"/>
      <stop offset="0.33" stop-color="#2ABDE4" stop-opacity="0.28"/>
      <stop offset="0.49" stop-color="#4AC5E5" stop-opacity="0.49"/>
      <stop offset="0.66" stop-color="#73D0E6" stop-opacity="0.75"/>
      <stop offset="0.81" stop-color="#9ADBE8"/>
    </linearGradient>
    <linearGradient id="paint3_linear_2419_24812" x1="2.6808" y1="3.1193" x2="17.2898" y2="3.1193" gradientUnits="userSpaceOnUse">
      <stop stop-color="#00B2E3" stop-opacity="0"/>
      <stop offset="0.07" stop-color="#05B3E3" stop-opacity="0.03"/>
      <stop offset="0.19" stop-color="#13B7E3" stop-opacity="0.13"/>
      <stop offset="0.33" stop-color="#2ABDE4" stop-opacity="0.28"/>
      <stop offset="0.49" stop-color="#4AC5E5" stop-opacity="0.49"/>
      <stop offset="0.66" stop-color="#73D0E6" stop-opacity="0.75"/>
      <stop offset="0.81" stop-color="#9ADBE8"/>
    </linearGradient>
  </defs>
</svg>
