<svg width="20" height="20" viewBox="0 0 20 20" fill="none" xmlns="http://www.w3.org/2000/svg">
<path d="M8 10L19 10M19 10L15 6M19 10L15 14" stroke="currentColor" stroke-width="2" stroke-linecap="round" stroke-linejoin="round"/>
<path d="M9 5V4C9 3.05719 9 2.58579 8.70711 2.29289C8.41421 2 7.94281 2 7 2H3C2.05719 2 1.58579 2 1.29289 2.29289C1 2.58579 1 3.05719 1 4V16C1 16.9428 1 17.4142 1.29289 17.7071C1.58579 18 2.05719 18 3 18H7C7.94281 18 8.41421 18 8.70711 17.7071C9 17.4142 9 16.9428 9 16V15" stroke="currentColor" stroke-width="2" stroke-linecap="round" stroke-linejoin="round"/>
</svg>
