<svg width="20" height="16" viewBox="0 0 20 16" fill="none" xmlns="http://www.w3.org/2000/svg">
<path d="M2.375 3.25C2.375 3 2.25 2.75 2.125 2.625L0.25 0.374999V0H6L10.5 9.875L14.5 0H20V0.374999L18.375 1.875C18.25 2 18.125 2.125 18.25 2.375V13.625C18.25 13.75 18.25 14 18.375 14.125L19.875 15.625V16H12V15.625L13.625 14C13.75 13.875 13.75 13.75 13.75 13.5V4.375L9.25 15.75H8.75L3.5 4.375V12C3.5 12.375 3.625 12.625 3.75 12.875L5.875 15.375V15.75H0V15.375L2.125 12.875C2.375 12.625 2.5 12.375 2.375 12V3.25Z" fill="#1B8918"/>
</svg>
