<svg width="20" height="20" viewBox="0 0 20 20" fill="none" xmlns="http://www.w3.org/2000/svg">
    <path d="M10 2C8.12936 2 6.6129 3.63012 6.6129 5.64099C6.6129 7.65185 8.12936 9.28197 10 9.28197C11.8706 9.28197 13.3871 7.65185 13.3871 5.64099C13.3871 3.63012 11.8706 2 10 2Z" fill="currentColor"/>
    <path d="M6.3871 11.2238C4.51645 11.2238 3 12.854 3 14.8648V16.0186C3 16.7499 3.49306 17.3735 4.1645 17.4913C8.02925 18.1696 11.9707 18.1696 15.8355 17.4913C16.5069 17.3735 17 16.7499 17 16.0186V14.8648C17 12.854 15.4835 11.2238 13.6129 11.2238H13.305C13.1384 11.2238 12.9728 11.2522 12.8144 11.3078L12.0326 11.5822C10.7119 12.0458 9.28814 12.0458 7.96737 11.5822L7.18561 11.3078C7.02721 11.2522 6.86162 11.2238 6.69498 11.2238H6.3871Z" fill="currentColor"/>
</svg>
