<svg width="21" height="20" viewBox="0 0 21 20" fill="none" xmlns="http://www.w3.org/2000/svg">
<path d="M18.8333 10C18.8333 14.6024 15.1023 18.3334 10.5 18.3334M18.8333 10C18.8333 5.39765 15.1023 1.66669 10.5 1.66669M18.8333 10H2.16663M10.5 18.3334C5.89759 18.3334 2.16663 14.6024 2.16663 10M10.5 18.3334C8.36015 16.0866 7.16663 13.1027 7.16663 10C7.16663 6.8973 8.36015 3.91348 10.5 1.66669M10.5 18.3334C12.6398 16.0866 13.8333 13.1027 13.8333 10C13.8333 6.8973 12.6398 3.91348 10.5 1.66669M2.16663 10C2.16663 5.39765 5.89759 1.66669 10.5 1.66669" stroke="currentColor" stroke-width="1.5" stroke-linecap="round" stroke-linejoin="round"/>
</svg>
