<svg width="20" height="20" viewBox="0 0 20 20" fill="none" xmlns="http://www.w3.org/2000/svg">
<path d="M12.18 8.63029C12.5968 8.57581 12.9847 8.8703 13.008 9.2894C13.0211 9.52619 13.0281 9.75729 13.0281 9.98094C13.0281 10.6912 12.9574 11.4771 12.8432 12.2823C12.7991 12.5938 12.5542 12.8382 12.2422 12.8823C11.4357 12.9963 10.6486 13.067 9.93714 13.067C9.22839 13.067 8.44143 12.9964 7.63209 12.882C7.32008 12.8379 7.07518 12.5934 7.03103 12.2819C6.91693 11.4768 6.84615 10.6911 6.84615 9.98094C6.84615 9.75731 6.85317 9.52621 6.86635 9.28936C6.88966 8.87028 7.27751 8.5758 7.69437 8.63028C8.47261 8.732 9.23496 8.79401 9.93717 8.79401C10.6394 8.79401 11.4017 8.732 12.18 8.63029Z" fill="currentColor"/>
<path d="M14.5574 8.18344C14.1885 8.26454 13.938 8.6078 13.9656 8.98387C13.9923 9.34675 14.0069 9.70048 14.0069 10.04C14.0069 10.5204 13.9777 11.0291 13.9265 11.5517C13.8772 12.0559 14.3259 12.4764 14.8199 12.3602C16.0799 12.0638 17.0098 11.779 17.7197 11.5617C18.0071 11.4738 18.1779 11.4396 18.3294 11.3791C18.36 11.3669 18.4499 11.3381 18.5521 11.3052C18.7908 11.2285 18.9529 11.0237 18.972 10.7741C18.9906 10.5318 19 10.287 19 10.04C19 9.21962 18.8958 8.93802 18.6999 8.1787C18.6217 7.87567 18.3098 7.18796 18.0051 7.26133C17.1864 7.51001 16.0983 7.84467 14.5574 8.18344Z" fill="currentColor"/>
<path d="M17.5836 5.50723C17.8219 5.89191 17.6097 6.38258 17.174 6.50653C16.4232 6.72013 15.4751 6.97236 14.4548 7.20224C14.0494 7.29358 13.6546 7.02177 13.5776 6.61401C13.3065 5.17666 12.9529 3.78971 12.6571 2.73158C12.4995 2.16765 13.0238 1.6578 13.5538 1.90831C15.22 2.69578 16.6202 3.95235 17.5836 5.50723Z" fill="currentColor"/>
<path d="M12.6285 6.9009C12.7032 7.29795 12.4315 7.67548 12.0304 7.72853C11.2981 7.82537 10.5861 7.8842 9.93717 7.8842C9.28825 7.8842 8.57631 7.82538 7.84403 7.72853C7.44287 7.67548 7.17118 7.29793 7.24592 6.90087C7.63288 4.84531 8.20486 2.85705 8.51305 1.85308C8.60113 1.56616 8.63615 1.45347 8.69675 1.30221C8.75633 1.15351 8.89752 1.05473 9.05726 1.0401C9.34699 1.01356 9.64048 1 9.93714 1C10.3082 1 10.6742 1.02121 11.0342 1.06248C11.0879 1.06864 11.1318 1.10743 11.1465 1.15939C11.1687 1.23814 11.2036 1.3488 11.2621 1.53449L11.2683 1.554C11.5339 2.39703 12.1964 4.60568 12.6285 6.9009Z" fill="currentColor"/>
<path d="M2.13265 7.26133C1.75402 7.15559 1.35636 7.367 1.26427 7.7486C1.09152 8.46447 1 9.21195 1 9.98077C1 10.2517 1.01136 10.52 1.03364 10.7851C1.05246 11.0091 1.21109 11.1946 1.42676 11.259C1.47501 11.275 2.68753 11.6863 4.54957 12.1489C4.75555 12.2 4.96629 12.251 5.18061 12.3011C5.67462 12.4167 6.12281 11.9967 6.07347 11.4925C6.02231 10.9698 5.99314 10.4612 5.99314 9.98077C5.99314 9.64113 6.00772 9.28739 6.03433 8.92456C6.06192 8.5485 5.81147 8.20516 5.44229 8.12564C3.96099 7.80656 3.09674 7.55057 2.28029 7.30256L2.13265 7.26133Z" fill="currentColor"/>
<path d="M9.91821 14.0149C10.3994 14.0149 10.9088 13.9858 11.4323 13.9347C11.9374 13.8854 12.358 14.3331 12.2422 14.8263C11.9166 16.2123 11.5623 17.4303 11.3423 18.1469C11.2542 18.4338 11.2192 18.5465 11.1586 18.6978C11.099 18.8465 10.9578 18.9453 10.7981 18.9599C10.5084 18.9864 10.2149 19 9.91821 19C9.62154 19 9.32805 18.9864 9.03832 18.9599C8.87858 18.9453 8.73739 18.8465 8.67782 18.6978C8.61722 18.5465 8.58219 18.4338 8.49412 18.1469C8.27416 17.4304 7.91984 16.2125 7.59432 14.8266C7.47846 14.3334 7.89909 13.8857 8.40413 13.9349C8.92656 13.9858 9.43601 14.0149 9.91821 14.0149Z" fill="currentColor"/>
<path d="M4.01076 13.0084C3.38731 12.8536 2.81283 12.6983 2.31942 12.5587C1.8493 12.4256 1.42133 12.8617 1.61962 13.3076C2.6206 15.5584 4.47247 17.3484 6.76761 18.2705C7.06391 18.3896 7.33586 18.0889 7.20709 17.7971C6.93634 16.9151 6.705 15.7962 6.35433 13.9934C6.29737 13.7006 6.06782 13.4716 5.77524 13.4112C5.15924 13.2839 4.56318 13.1456 4.01076 13.0084Z" fill="currentColor"/>
<path d="M17.7018 12.5234C16.819 12.7935 15.9054 13.0758 14.1354 13.4338C13.8426 13.493 13.6126 13.7224 13.5538 14.0149C13.1951 15.8 12.9122 16.8155 12.6416 17.6972C12.5278 18.0656 12.8714 18.4047 13.2282 18.2573C15.5214 17.3096 17.3626 15.4922 18.3392 13.2169C18.5147 12.808 18.132 12.4073 17.7018 12.5234Z" fill="currentColor"/>
<path d="M1.42676 11.259C1.45969 11.2633 1.68496 11.33 1.42676 11.259C1.43203 11.2606 1.43457 11.2609 1.42676 11.259Z" fill="currentColor"/>
<path d="M2.31942 5.50723C2.08109 5.89191 2.29329 6.38258 2.729 6.50654C3.47982 6.72013 4.42793 6.97236 5.34345 7.20224C5.74649 7.30344 6.24845 7.02177 6.32536 6.61401C6.59648 5.17666 6.95015 3.78971 7.24592 2.73158C7.40355 2.16765 6.8792 1.6578 6.34917 1.90831C4.68305 2.69578 3.28278 3.95235 2.31942 5.50723Z" fill="currentColor"/>
</svg>
