<svg width="20" height="20" viewBox="0 0 20 20" fill="none" xmlns="http://www.w3.org/2000/svg">
<path d="M18.3337 9.99996C18.3337 14.6023 14.6027 18.3333 10.0003 18.3333M18.3337 9.99996C18.3337 5.39759 14.6027 1.66663 10.0003 1.66663M18.3337 9.99996H1.66699M10.0003 18.3333C5.39795 18.3333 1.66699 14.6023 1.66699 9.99996M10.0003 18.3333C7.86052 16.0865 6.66699 13.1027 6.66699 9.99996C6.66699 6.89724 7.86052 3.91342 10.0003 1.66663M10.0003 18.3333C12.1401 16.0865 13.3337 13.1027 13.3337 9.99996C13.3337 6.89724 12.1401 3.91342 10.0003 1.66663M1.66699 9.99996C1.66699 5.39759 5.39795 1.66663 10.0003 1.66663" stroke="currentColor" stroke-linecap="round" stroke-linejoin="round"/>
</svg>
