<svg width="20" height="20" viewBox="0 0 20 20" fill="none" xmlns="http://www.w3.org/2000/svg">
    <path d="M2.25 8.5h4a1.25 1.25 0 0 0 0-2.5h-1.3a6.8 6.8 0 0 1 10.09-.5A6.87 6.87 0 0 1 17 9.43c.05.33.22.62.48.83.22.17.48.25.75.25l.17-.01c.68-.1 1.16-.73 1.07-1.41a9.44 9.44 0 0 0-2.68-5.37 9.2 9.2 0 0 0-5.37-2.64A9.4 9.4 0 0 0 3.5 3.86v-.62a1.25 1.25 0 0 0-2.5 0v4c0 .69.56 1.25 1.25 1.25v.01ZM18.25 12h-4a1.25 1.25 0 0 0 0 2.5h1.3a6.8 6.8 0 0 1-10.09.5 6.87 6.87 0 0 1-1.96-3.93 1.31 1.31 0 0 0-.48-.83c-.27-.2-.6-.29-.93-.24-.68.1-1.16.73-1.07 1.41A9.37 9.37 0 0 0 17 16.63v.62a1.25 1.25 0 0 0 2.5 0v-4.01c0-.69-.56-1.25-1.25-1.25V12Z" fill="currentColor" />
</svg>
