<svg width="64" height="64" viewBox="0 0 64 64" fill="none" xmlns="http://www.w3.org/2000/svg">
<g clip-path="url(#clip0_532_8059)">
<path d="M15.8667 48.2215L15.8663 48.2212C17.2028 49.5577 17.2028 51.7324 15.8664 53.0687C15.6689 53.2662 15.4482 53.4392 15.21 53.583C15.0658 53.6731 14.8957 53.7471 14.7357 53.8255L4.9004 59.0981C4.99778 58.9086 10.2015 49.4896 10.3018 49.272C10.4737 48.8787 10.7148 48.5251 11.0185 48.2214C11.6868 47.5531 12.5645 47.2189 13.4424 47.2189C14.3203 47.2189 15.198 47.5531 15.8663 48.2214L15.866 48.2211L12.2342 44.5891C11.0754 44.8185 9.97015 45.3806 9.07403 46.2766C8.54228 46.8084 8.11678 47.425 7.80865 48.11L0.251527 61.8416C-0.0422232 62.3752 0.0501518 63.0384 0.478527 63.4715C0.743402 63.7394 1.09778 63.8797 1.45653 63.8796C1.6779 63.8796 1.90103 63.8262 2.10578 63.7164L15.9918 56.2724C16.674 55.9641 17.2822 55.5409 17.8109 55.0135C18.707 54.1174 19.2692 53.0121 19.4985 51.8534L15.8667 48.2215Z" fill="#6347F5"/>
<path d="M40.4092 31.1041C36.4568 31.186 32.9006 27.718 32.9798 23.6782C32.9529 17.112 41.0277 13.7688 45.6626 18.4251C48.5444 21.1903 48.5448 26.1665 45.6626 28.9317C44.2142 30.38 42.3117 31.1041 40.4092 31.1041ZM40.4092 19.0011C37.9201 18.9495 35.6798 21.1341 35.7298 23.6782C35.7298 24.9281 36.2166 26.1032 37.1004 26.987C40.0198 29.9195 45.1057 27.814 45.0886 23.6781C45.1382 21.1342 42.8986 18.9493 40.4092 19.0011Z" fill="#685AB5"/>
<path d="M62.0887 13.3699C63.998 6.51823 64.0009 1.60686 64.0001 1.40111C63.9986 1.02711 63.8447 0.66961 63.574 0.411485C63.3033 0.15336 62.9389 0.0171101 62.5653 0.0329851C55.4811 0.342235 48.6976 1.98124 42.4033 4.90461C34.6838 8.55873 28.1389 13.5827 22.8825 20.5591L11.586 20.0099C11.1981 19.9901 10.8211 20.1369 10.547 20.411L0.40275 30.555C0.0468748 30.9109 -0.0861252 31.4326 0.0559998 31.9155C0.198125 32.3982 0.592625 32.7649 1.0845 32.8712L13.52 35.5602C11.653 39.0375 10.486 41.5057 10.4705 41.5386C10.2231 42.0634 10.3317 42.687 10.742 43.0972L15.8658 48.221L15.866 48.2212L15.8664 48.2215L21.0969 53.452C21.528 53.8834 22.1908 53.9767 22.7213 53.6902C22.9884 53.5464 25.273 52.312 28.423 50.505L31.1005 62.8871C31.3092 63.9344 32.6706 64.3382 33.4168 63.5687L43.5607 53.4247C43.835 53.1505 43.9806 52.7731 43.9619 52.3857L43.4129 41.093C53.3371 34.1084 59.122 23.6496 62.0887 13.3699ZM59.4137 12.7244C58.9437 14.3994 58.3226 16.2906 57.5042 18.3126L45.6699 6.47824C50.5805 4.46786 55.7833 3.25648 61.1834 2.86711C61.0485 4.76049 60.6418 8.34761 59.4137 12.7244ZM12.0606 22.7862L20.961 23.219C19.0413 25.9827 16.8231 29.5965 14.899 33.0449L4.1305 30.7164L12.0606 22.7862ZM15.9354 36.8834L20.5972 41.5454L16.8382 45.3045L13.3783 41.8445C13.8659 40.8521 14.7565 39.0771 15.9354 36.8834ZM22.3135 50.7796L18.7829 47.249L22.5419 43.49L27.1245 48.0726C25.02 49.2819 23.2972 50.2387 22.3135 50.7796ZM41.1852 51.9109L33.2551 59.841L30.9228 49.0545C34.0105 47.242 37.5456 45.0862 40.749 42.9371L41.1852 51.9109ZM46.5354 35.0181C43.2116 38.342 35.5721 43.1261 29.5845 46.6435L24.4864 41.5454L31.1129 34.9189C31.6499 34.3819 31.6497 33.5112 31.1129 32.9742C30.5759 32.4374 29.7052 32.4374 29.1682 32.9742L22.5417 39.6007L17.3131 34.372C20.4054 28.8527 24.7574 21.8634 29.069 17.5517C33.1553 13.4655 37.8335 10.1472 42.9793 7.67686L56.3203 21.0177C54.1935 25.532 51.0814 30.4721 46.5354 35.0181Z" fill="#685AB5"/>
</g>
<defs>
<clipPath id="clip0_532_8059">
<rect width="64" height="64" fill="white"/>
</clipPath>
</defs>
</svg>
