<svg width="20" height="20" viewBox="0 0 20 20" fill="none" xmlns="http://www.w3.org/2000/svg">
<path fill-rule="evenodd" clip-rule="evenodd" d="M16.2518 6.70606L16.3066 6.80501C16.4574 7.07723 16.6762 7.3017 16.9396 7.45453L18.2324 8.20446C18.4962 8.35746 18.66 8.64722 18.6607 8.96195L18.6667 11.7011C18.6674 12.0178 18.5028 12.3097 18.2372 12.4632L16.9413 13.2121C16.6768 13.3649 16.4571 13.5899 16.3059 13.863L16.2518 13.9606C16.1006 14.2335 16.0234 14.5441 16.0285 14.8592L16.0535 16.407C16.0586 16.7219 15.8998 17.0151 15.6385 17.1733L13.3649 18.5492C13.1024 18.7081 12.7778 18.7056 12.5176 18.5427L11.2457 17.7465C10.9865 17.5843 10.69 17.4986 10.3877 17.4986H10.2779C9.97633 17.4986 9.68038 17.5839 9.42161 17.7455L8.15554 18.5359C7.89622 18.6979 7.57315 18.7007 7.31126 18.5433L5.03043 17.1728C4.76786 17.015 4.60811 16.7211 4.61323 16.4051L4.63817 14.8642C4.64324 14.5513 4.56724 14.2429 4.41818 13.9714L4.36024 13.8658C4.20936 13.591 3.98934 13.3643 3.72393 13.2103L2.43424 12.4622C2.17047 12.3092 2.00665 12.0195 2.00597 11.7047L2 8.96556C1.99931 8.64891 2.16385 8.35692 2.42946 8.20344L3.72537 7.45459C3.98988 7.30174 4.20953 7.07674 4.36079 6.80369L4.41487 6.70607C4.56605 6.43316 4.64323 6.12253 4.63814 5.80742L4.61317 4.25968C4.60809 3.94472 4.76685 3.65154 5.02813 3.49342L7.30175 2.11742C7.56427 1.95855 7.88887 1.96105 8.14911 2.12396L9.421 2.92018C9.68014 3.08241 9.97671 3.16811 10.279 3.16811H10.3887C10.6903 3.16811 10.9863 3.08278 11.2451 2.92122L12.5111 2.13072C12.7705 1.96881 13.0935 1.96599 13.3554 2.12335L15.6363 3.49388C15.8988 3.65164 16.0586 3.94557 16.0535 4.2615L16.0285 5.80742C16.0234 6.12254 16.1006 6.43316 16.2518 6.70606ZM13.4583 10.3333C13.4583 12.0592 12.0592 13.4583 10.3333 13.4583C8.60744 13.4583 7.20833 12.0592 7.20833 10.3333C7.20833 8.60744 8.60744 7.20833 10.3333 7.20833C12.0592 7.20833 13.4583 8.60744 13.4583 10.3333Z" fill="currentColor"/>
</svg>
