<svg width="20" height="20" viewBox="0 0 20 20" fill="none" xmlns="http://www.w3.org/2000/svg">
<path d="M10.1833 1.66667H9.81667C9.37464 1.66667 8.95072 1.84227 8.63816 2.15483C8.3256 2.46739 8.15 2.89131 8.15 3.33334V3.48334C8.1497 3.77561 8.07255 4.06266 7.92628 4.3157C7.78002 4.56874 7.56978 4.77887 7.31667 4.925L6.95834 5.13334C6.70497 5.27962 6.41756 5.35663 6.125 5.35663C5.83244 5.35663 5.54503 5.27962 5.29167 5.13334L5.16667 5.06667C4.78422 4.84606 4.32987 4.78621 3.90334 4.90026C3.47681 5.01432 3.11296 5.29295 2.89167 5.675L2.70833 5.99167C2.48772 6.37412 2.42787 6.82847 2.54192 7.255C2.65598 7.68153 2.93461 8.04538 3.31667 8.26667L3.44167 8.35001C3.69356 8.49543 3.90302 8.70425 4.04921 8.9557C4.1954 9.20715 4.27325 9.49248 4.275 9.78334V10.2083C4.27617 10.502 4.19971 10.7908 4.05337 11.0454C3.90703 11.3001 3.69601 11.5115 3.44167 11.6583L3.31667 11.7333C2.93461 11.9546 2.65598 12.3185 2.54192 12.745C2.42787 13.1715 2.48772 13.6259 2.70833 14.0083L2.89167 14.325C3.11296 14.7071 3.47681 14.9857 3.90334 15.0997C4.32987 15.2138 4.78422 15.154 5.16667 14.9333L5.29167 14.8667C5.54503 14.7204 5.83244 14.6434 6.125 14.6434C6.41756 14.6434 6.70497 14.7204 6.95834 14.8667L7.31667 15.075C7.56978 15.2211 7.78002 15.4313 7.92628 15.6843C8.07255 15.9373 8.1497 16.2244 8.15 16.5167V16.6667C8.15 17.1087 8.3256 17.5326 8.63816 17.8452C8.95072 18.1577 9.37464 18.3333 9.81667 18.3333H10.1833C10.6254 18.3333 11.0493 18.1577 11.3618 17.8452C11.6744 17.5326 11.85 17.1087 11.85 16.6667V16.5167C11.8503 16.2244 11.9275 15.9373 12.0737 15.6843C12.22 15.4313 12.4302 15.2211 12.6833 15.075L13.0417 14.8667C13.295 14.7204 13.5824 14.6434 13.875 14.6434C14.1676 14.6434 14.455 14.7204 14.7083 14.8667L14.8333 14.9333C15.2158 15.154 15.6701 15.2138 16.0967 15.0997C16.5232 14.9857 16.887 14.7071 17.1083 14.325L17.2917 14C17.5123 13.6176 17.5721 13.1632 17.4581 12.7367C17.344 12.3101 17.0654 11.9463 16.6833 11.725L16.5583 11.6583C16.304 11.5115 16.093 11.3001 15.9466 11.0454C15.8003 10.7908 15.7238 10.502 15.725 10.2083V9.79167C15.7238 9.49799 15.8003 9.20921 15.9466 8.95458C16.093 8.69995 16.304 8.48851 16.5583 8.34167L16.6833 8.26667C17.0654 8.04538 17.344 7.68153 17.4581 7.255C17.5721 6.82847 17.5123 6.37412 17.2917 5.99167L17.1083 5.675C16.887 5.29295 16.5232 5.01432 16.0967 4.90026C15.6701 4.78621 15.2158 4.84606 14.8333 5.06667L14.7083 5.13334C14.455 5.27962 14.1676 5.35663 13.875 5.35663C13.5824 5.35663 13.295 5.27962 13.0417 5.13334L12.6833 4.925C12.4302 4.77887 12.22 4.56874 12.0737 4.3157C11.9275 4.06266 11.8503 3.77561 11.85 3.48334V3.33334C11.85 2.89131 11.6744 2.46739 11.3618 2.15483C11.0493 1.84227 10.6254 1.66667 10.1833 1.66667Z" stroke="currentColor" stroke-width="1.5" stroke-linecap="round" stroke-linejoin="round"/>
<path d="M10 12.5C11.3807 12.5 12.5 11.3807 12.5 10C12.5 8.61929 11.3807 7.5 10 7.5C8.61929 7.5 7.5 8.61929 7.5 10C7.5 11.3807 8.61929 12.5 10 12.5Z" stroke="currentColor" stroke-width="1.5" stroke-linecap="round" stroke-linejoin="round"/>
</svg>
