<svg width="20" height="20" viewBox="0 0 20 20" fill="none" xmlns="http://www.w3.org/2000/svg">
<path fill-rule="evenodd" clip-rule="evenodd" d="M20 10C20 15.5228 15.5228 20 10 20C4.47715 20 0 15.5228 0 10C0 4.47715 4.47715 0 10 0C15.5228 0 20 4.47715 20 10ZM11.2691 14.6844C11.2691 15.4108 10.6802 15.9998 9.95376 15.9998C9.2273 15.9998 8.63838 15.4108 8.63838 14.6844C8.63838 13.9579 9.2273 13.369 9.95376 13.369C10.6802 13.369 11.2691 13.9579 11.2691 14.6844ZM9.02213 11.1773L8.2702 5.16187C8.2329 4.86344 8.46559 4.59985 8.76634 4.59985H11.1413C11.442 4.59985 11.6747 4.86344 11.6374 5.16187L10.8855 11.1773C10.8542 11.4275 10.6415 11.6152 10.3893 11.6152H9.51827C9.2661 11.6152 9.0534 11.4275 9.02213 11.1773Z" fill="currentColor"/>
</svg>
