<svg width="20" height="20" viewBox="0 0 20 20" fill="none" xmlns="http://www.w3.org/2000/svg">
<path fill-rule="evenodd" clip-rule="evenodd" d="M10 20C15.5228 20 20 15.5228 20 10C20 4.47715 15.5228 0 10 0C4.47715 0 0 4.47715 0 10C0 15.5228 4.47715 20 10 20ZM8.99203 13.7649L14.7883 7.37075C14.9242 7.21977 15.0003 7.01552 15 6.80273C14.9997 6.58995 14.9229 6.38598 14.7865 6.23552C14.6501 6.08505 14.4652 6.00036 14.2723 6C14.0794 5.99964 13.8943 6.08363 13.7574 6.23358L8.62648 11.8939C8.58673 11.9378 8.53282 11.9624 8.47661 11.9624C8.4204 11.9624 8.3665 11.9378 8.32675 11.8939L6.24257 9.59469C6.10571 9.44474 5.92056 9.36075 5.72767 9.36111C5.53478 9.36147 5.34989 9.44616 5.21349 9.59663C5.0771 9.74709 5.00033 9.95106 5 10.1638C4.99967 10.3766 5.07581 10.5809 5.21174 10.7319L7.9612 13.7649C8.098 13.9154 8.28336 14 8.47661 14C8.66987 14 8.85523 13.9154 8.99203 13.7649Z" fill="currentColor"/>
</svg>
