<svg width="20" height="20" viewBox="0 0 20 20" fill="none" xmlns="http://www.w3.org/2000/svg">
<path fill-rule="evenodd" clip-rule="evenodd" d="M10 20C15.5228 20 20 15.5228 20 10C20 4.47715 15.5228 0 10 0C4.47715 0 0 4.47715 0 10C0 15.5228 4.47715 20 10 20ZM10 5C10.2913 5 10.5275 5.22669 10.5275 5.50633V5.88608H10.8215C11.9952 5.88608 12.9666 6.76203 13.0399 7.88645L13.1564 9.67554C13.2009 10.3577 13.4395 11.015 13.8462 11.576C14.2137 12.0829 13.8865 12.7829 13.2478 12.8565L11.4506 13.0635V13.6076C11.4506 14.3766 10.8011 15 10 15C9.19887 15 8.54943 14.3766 8.54943 13.6076V13.0635L6.75222 12.8565C6.11348 12.7829 5.78632 12.0829 6.15381 11.576C6.56053 11.015 6.79911 10.3577 6.84355 9.67554L6.96013 7.88645C7.03339 6.76203 8.0048 5.88608 9.17849 5.88608H9.47252V5.50633C9.47252 5.22669 9.70868 5 10 5ZM10 14.2405C9.63585 14.2405 9.34065 13.9571 9.34065 13.6076V13.2278H10.6594V13.6076C10.6594 13.9571 10.3642 14.2405 10 14.2405Z" fill="currentColor"/>
</svg>
