<svg width="21" height="20" viewBox="0 0 21 20" fill="none" xmlns="http://www.w3.org/2000/svg">
<path fill-rule="evenodd" clip-rule="evenodd" d="M10.2832 20C15.8061 20 20.2832 15.5228 20.2832 10C20.2832 4.47715 15.8061 0 10.2832 0C4.76036 0 0.283203 4.47715 0.283203 10C0.283203 15.5228 4.76036 20 10.2832 20ZM10.2832 18C14.7015 18 18.2832 14.4183 18.2832 10C18.2832 5.58172 14.7015 2 10.2832 2C5.86492 2 2.2832 5.58172 2.2832 10C2.2832 14.4183 5.86492 18 10.2832 18Z" fill="#2B63F1"/>
<path d="M20.2832 10C20.2832 15.5228 15.8061 20 10.2832 20C4.76036 20 0.283203 15.5228 0.283203 10C0.283203 4.47715 4.76036 0 10.2832 0V2C5.86492 2 2.2832 5.58172 2.2832 10C2.2832 14.4183 5.86492 18 10.2832 18C14.7015 18 18.2832 14.4183 18.2832 10H20.2832Z" fill="#DAE4FD"/>
</svg>
