<svg width="20" height="20" viewBox="0 0 20 20" fill="none" xmlns="http://www.w3.org/2000/svg">
<path d="M13.3501 10L17.9167 12.6083C18.045 12.681 18.1517 12.7864 18.2259 12.9138C18.3001 13.0411 18.3392 13.1859 18.3392 13.3333C18.3392 13.4807 18.3001 13.6255 18.2259 13.7529C18.1517 13.8802 18.045 13.9857 17.9167 14.0583L10.8334 18.1167C10.58 18.2629 10.2926 18.34 10.0001 18.34C9.70751 18.34 9.42011 18.2629 9.16674 18.1167L2.08341 14.0583C1.95516 13.9857 1.84848 13.8802 1.77427 13.7529C1.70005 13.6255 1.66095 13.4807 1.66095 13.3333C1.66095 13.1859 1.70005 13.0411 1.77427 12.9138C1.84848 12.7864 1.95516 12.681 2.08341 12.6083L6.65007 10M10.8334 11.4499C10.58 11.5962 10.2926 11.6732 10.0001 11.6732C9.70751 11.6732 9.42011 11.5962 9.16674 11.4499L2.08341 7.39157C1.95516 7.31889 1.84848 7.21349 1.77427 7.08613C1.70005 6.95876 1.66095 6.81399 1.66095 6.66657C1.66095 6.51916 1.70005 6.37439 1.77427 6.24702C1.84848 6.11966 1.95516 6.01426 2.08341 5.94158L9.16674 1.88324C9.42011 1.73696 9.70751 1.65995 10.0001 1.65995C10.2926 1.65995 10.58 1.73696 10.8334 1.88324L17.9167 5.94158C18.045 6.01426 18.1517 6.11966 18.2259 6.24702C18.3001 6.37439 18.3392 6.51916 18.3392 6.66657C18.3392 6.81399 18.3001 6.95876 18.2259 7.08613C18.1517 7.21349 18.045 7.31889 17.9167 7.39157L10.8334 11.4499Z" stroke="currentColor" stroke-width="1.5" stroke-linecap="round" stroke-linejoin="round"/>
</svg>
