<svg width="16" height="16" viewBox="0 0 16 16" fill="#B3B3B3" xmlns="http://www.w3.org/2000/svg">
<path d="M13.25 4.11111H10.85V3.33333C10.85 2.47778 10.85 1.91 10.4075 1.45111C9.9725 1 9.425 1 8.6 1H7.4C6.575 1 6.0275 1 5.5925 1.45889C5.15 1.91778 5.15 2.47778 5.15 3.33333V4.11111H2.75C2.3375 4.11111 2 4.46111 2 4.88889C2 5.31667 2.3375 5.66667 2.75 5.66667H3.05V11.1111C3.05 12.7367 3.05 13.6311 3.71 14.3156C4.37 15 5.2325 15 6.8 15H9.2C10.7675 15 11.63 15 12.29 14.3156C12.95 13.6311 12.95 12.7367 12.95 11.1111V5.66667H13.25C13.6625 5.66667 14 5.31667 14 4.88889C14 4.46111 13.6625 4.11111 13.25 4.11111ZM7.25 11.1111C7.25 11.5389 6.9125 11.8889 6.5 11.8889C6.0875 11.8889 5.75 11.5389 5.75 11.1111V8C5.75 7.57222 6.0875 7.22222 6.5 7.22222C6.9125 7.22222 7.25 7.57222 7.25 8V11.1111ZM10.25 11.1111C10.25 11.5389 9.9125 11.8889 9.5 11.8889C9.0875 11.8889 8.75 11.5389 8.75 11.1111V8C8.75 7.57222 9.0875 7.22222 9.5 7.22222C9.9125 7.22222 10.25 7.57222 10.25 8V11.1111Z"/>
</svg>
