<svg width="14" height="14" viewBox="0 0 14 14" fill="none" xmlns="http://www.w3.org/2000/svg">
<path d="M2.1959 3.72727C2.1959 2.22104 3.42482 1 4.94078 1C6.45673 1 7.68565 2.22104 7.68565 3.72727C7.68565 5.2335 6.45673 6.45455 4.94078 6.45455C3.42482 6.45455 2.1959 5.2335 2.1959 3.72727Z" fill="currentColor"/>
<path d="M7.57539 1.28369C8.20862 1.90938 8.60061 2.77582 8.60061 3.73324C8.60061 4.69065 8.20862 5.5571 7.57539 6.18278C7.93996 6.36064 8.35004 6.46051 8.7836 6.46051C10.2996 6.46051 11.5285 5.23947 11.5285 3.73324C11.5285 2.22701 10.2996 1.00596 8.7836 1.00596C8.35004 1.00596 7.93996 1.10584 7.57539 1.28369Z" fill="currentColor"/>
<path d="M0 10.2727C0 8.7665 1.22892 7.54546 2.74488 7.54546H7.13668C8.65263 7.54546 9.88155 8.7665 9.88155 10.2727C9.88155 11.779 8.65263 13 7.13668 13H2.74488C1.22892 13 0 11.779 0 10.2727Z" fill="currentColor"/>
<path d="M10.817 10.4545C10.817 11.1999 10.5794 11.8901 10.1754 12.4545H11C12.516 12.4545 13.7449 11.2335 13.7449 9.72727C13.7449 8.22104 12.516 7 11 7H7.34017C9.26037 7 10.817 8.54665 10.817 10.4545Z" fill="currentColor"/>
</svg>
