<svg width="20" height="20" viewBox="0 0 20 20" fill="none" xmlns="http://www.w3.org/2000/svg">
<path d="M15 17.5C15 15.7319 14.2976 14.0362 13.0474 12.786C11.7972 11.5357 10.1015 10.8333 8.33335 10.8333M8.33335 10.8333C6.56524 10.8333 4.86955 11.5357 3.61931 12.786C2.36907 14.0362 1.66669 15.7319 1.66669 17.5M8.33335 10.8333C10.6345 10.8333 12.5 8.96785 12.5 6.66667C12.5 4.36548 10.6345 2.5 8.33335 2.5C6.03217 2.5 4.16669 4.36548 4.16669 6.66667C4.16669 8.96785 6.03217 10.8333 8.33335 10.8333ZM18.3334 16.6666C18.3334 13.8583 16.6667 11.25 15.0001 9.99996C15.5479 9.58893 15.986 9.0492 16.2755 8.42852C16.5651 7.80784 16.6972 7.12535 16.6601 6.44146C16.623 5.75757 16.4179 5.09336 16.063 4.50763C15.708 3.92189 15.2141 3.43268 14.6251 3.08329" stroke="currentColor" stroke-width="1.5" stroke-linecap="round" stroke-linejoin="round"/>
</svg>
