<svg width="20" height="20" viewBox="0 0 20 20" fill="none" xmlns="http://www.w3.org/2000/svg">
<path d="M15.8333 5.83333V3.33333C15.8333 3.11232 15.7455 2.90036 15.5893 2.74408C15.433 2.5878 15.221 2.5 15 2.5H4.16667C3.72464 2.5 3.30072 2.67559 2.98816 2.98816C2.67559 3.30072 2.5 3.72464 2.5 4.16667M2.5 4.16667C2.5 4.60869 2.67559 5.03262 2.98816 5.34518C3.30072 5.65774 3.72464 5.83333 4.16667 5.83333H16.6667C16.8877 5.83333 17.0996 5.92113 17.2559 6.07741C17.4122 6.23369 17.5 6.44565 17.5 6.66667V10M2.5 4.16667V15.8333C2.5 16.2754 2.67559 16.6993 2.98816 17.0118C3.30072 17.3244 3.72464 17.5 4.16667 17.5H16.6667C16.8877 17.5 17.0996 17.4122 17.2559 17.2559C17.4122 17.0996 17.5 16.8877 17.5 16.6667V13.3333M17.5 10H15C14.558 10 14.134 10.1756 13.8215 10.4882C13.5089 10.8007 13.3333 11.2246 13.3333 11.6667C13.3333 12.1087 13.5089 12.5326 13.8215 12.8452C14.134 13.1577 14.558 13.3333 15 13.3333H17.5M17.5 10C17.721 10 17.933 10.0878 18.0893 10.2441C18.2455 10.4004 18.3333 10.6123 18.3333 10.8333V12.5C18.3333 12.721 18.2455 12.933 18.0893 13.0893C17.933 13.2455 17.721 13.3333 17.5 13.3333" stroke="currentColor" stroke-width="1.5" stroke-linecap="round" stroke-linejoin="round"/>
</svg>
