<svg width="80" height="80" viewBox="0 0 80 80" fill="none" xmlns="http://www.w3.org/2000/svg">
<path d="M35.7213 68.5702C35.4078 68.5734 35.0967 68.514 34.8064 68.3954C34.5161 68.2769 34.2524 68.1017 34.0306 67.8799C33.8089 67.6582 33.6337 67.3945 33.5151 67.1042C33.3966 66.8138 33.3372 66.5028 33.3404 66.1892C33.3404 66.1464 33.3428 65.9869 33.3475 65.944L35.5796 44.8397C35.5841 44.7975 35.551 44.7608 35.5086 44.7608H23.8166C23.5031 44.764 23.192 44.7045 22.9017 44.586C22.6114 44.4675 22.3477 44.2922 22.1259 44.0705C21.9042 43.8488 21.7289 43.585 21.6104 43.2947C21.4919 43.0044 21.4325 42.6934 21.4357 42.3798C21.4357 41.8727 21.6095 41.3513 21.9142 40.9489L40.9213 12.4347C41.4046 11.7847 42.1189 11.4276 42.8642 11.4276C43.1777 11.4244 43.4887 11.4838 43.7791 11.6023C44.0694 11.7209 44.3331 11.8961 44.5548 12.1178C44.7766 12.3396 44.9518 12.6033 45.0703 12.8936C45.1889 13.1839 45.2483 13.495 45.2451 13.8085C45.2451 13.8561 45.2427 14.0442 45.238 14.0919L43.0212 32.7762C43.0162 32.8187 43.0494 32.8561 43.0922 32.8561H57.1498C57.4634 32.8529 57.7744 32.9123 58.0647 33.0308C58.355 33.1493 58.6188 33.3246 58.8405 33.5463C59.0622 33.7681 59.2375 34.0318 59.356 34.3221C59.4745 34.6124 59.5339 34.9235 59.5307 35.237C59.5307 35.7394 59.3569 36.2608 59.0546 36.6656L37.6523 67.5821C37.4299 67.8861 37.1395 68.1339 36.8041 68.3055C36.4688 68.477 36.098 68.5677 35.7213 68.5702Z" stroke="currentColor" stroke-opacity="0.48" stroke-width="2"/>
</svg>
