<svg width="24" height="24" viewBox="0 0 24 24" xmlns="http://www.w3.org/2000/svg">
    <path d="M12 3C12 2.44772 12.4488 1.99482 12.9984 2.04995C14.6234 2.213 16.1893 2.7723 17.5557 3.6853C19.2002 4.78412 20.4819 6.3459 21.2388 8.17317C21.9957 10.0004 22.1937 12.0111 21.8079 13.9509C21.422 15.8907 20.4696 17.6725 19.0711 19.0711C17.6725 20.4696 15.8907 21.422 13.9509 21.8079C12.0111 22.1937 10.0004 21.9957 8.17317 21.2388C6.3459 20.4819 4.78412 19.2002 3.6853 17.5557C2.7723 16.1893 2.213 14.6234 2.04995 12.9984C1.99482 12.4488 2.44772 12 3 12C3.55228 12 3.99356 12.4494 4.06242 12.9974C4.21683 14.2262 4.65513 15.4072 5.34824 16.4446C6.22729 17.7602 7.47672 18.7855 8.93853 19.391C10.4003 19.9965 12.0089 20.155 13.5607 19.8463C15.1126 19.5376 16.538 18.7757 17.6569 17.6569C18.7757 16.538 19.5376 15.1126 19.8463 13.5607C20.155 12.0089 19.9965 10.4003 19.391 8.93853C18.7855 7.47672 17.7602 6.22729 16.4446 5.34824C15.4072 4.65513 14.2262 4.21683 12.9974 4.06242C12.4494 3.99356 12 3.55228 12 3Z" fill="#FFFFFF2A">
        <animateTransform attributeName="transform" type="rotate" repeatCount="indefinite" dur="0.5s" values="0 12 12;360 12 12" keyTimes="0;1" />
    </path>
</svg>
