<svg width="24" height="24" viewBox="0 0 24 24" fill="none" xmlns="http://www.w3.org/2000/svg">
  <g clip-path="url(#clip0_15480_18758)">
    <path d="M1.67 6.33a4.67 4.67 0 1 0 0-9.33 4.67 4.67 0 0 0 0 9.33Z" fill="#553C48"/>
    <path d="M1.67 13a4.67 4.67 0 1 0 0-9.33 4.67 4.67 0 0 0 0 9.33Z" fill="#5DE146"/>
    <path d="M1.67 19.67a4.67 4.67 0 1 0 0-9.34 4.67 4.67 0 0 0 0 9.34Z" fill="#5A744F"/>
    <path d="M1.67 26.33a4.67 4.67 0 1 0 0-9.33 4.67 4.67 0 0 0 0 9.33Z" fill="#5A564C"/>
    <path d="M8.33 6.33a4.67 4.67 0 1 0 0-9.33 4.67 4.67 0 0 0 0 9.33Z" fill="#586C45"/>
    <path d="M8.33 13a4.67 4.67 0 1 0 0-9.33 4.67 4.67 0 0 0 0 9.33Z" fill="#56EE4A"/>
    <path d="M8.33 19.67a4.67 4.67 0 1 0 0-9.34 4.67 4.67 0 0 0 0 9.34Z" fill="#5C7347"/>
    <path d="M8.33 26.33a4.67 4.67 0 1 0 0-9.33 4.67 4.67 0 0 0 0 9.33Z" fill="#54B74C"/>
    <path d="M15 6.33A4.67 4.67 0 1 0 15-3a4.67 4.67 0 0 0 0 9.33Z" fill="#56F042"/>
    <path d="M15 13a4.67 4.67 0 1 0 0-9.33A4.67 4.67 0 0 0 15 13Z" fill="#546249"/>
    <path d="M15 19.67a4.67 4.67 0 1 0 0-9.34 4.67 4.67 0 0 0 0 9.34Z" fill="#5CA649"/>
    <path d="M15 26.33A4.67 4.67 0 1 0 15 17a4.67 4.67 0 0 0 0 9.33Z" fill="#5D9F4D"/>
    <path d="M21.67 6.33a4.67 4.67 0 1 0 0-9.33 4.67 4.67 0 0 0 0 9.33Z" fill="#553547"/>
    <path d="M21.67 13a4.67 4.67 0 1 0 0-9.33 4.67 4.67 0 0 0 0 9.33Z" fill="#504E46"/>
    <path d="M21.67 19.67a4.67 4.67 0 1 0 0-9.34 4.67 4.67 0 0 0 0 9.34Z" fill="#58BE4C"/>
    <path d="M21.67 26.33a4.67 4.67 0 1 0 0-9.33 4.67 4.67 0 0 0 0 9.33Z" fill="#574344"/>
  </g>
  <defs>
    <clipPath id="clip0_15480_18758">
      <rect width="24" height="24" rx="12" fill="#fff"/>
    </clipPath>
  </defs>
</svg>
