<svg width="56" height="56" viewBox="0 0 56 56" fill="none" xmlns="http://www.w3.org/2000/svg">
<path d="M20.0145 16.2403C20.0145 11.0347 23.8853 6.95 28.5 6.95C33.1147 6.95 36.9855 11.0347 36.9855 16.2403C36.9855 21.4459 33.1147 25.5305 28.5 25.5305C23.8853 25.5305 20.0145 21.4459 20.0145 16.2403ZM9.95 41.1823C9.95 35.9767 13.8208 31.892 18.4355 31.892H19.2932C19.6483 31.892 20.0023 31.9529 20.3426 32.0735L22.5203 32.8453C26.4049 34.2219 30.5951 34.2219 34.4797 32.8453L36.6574 32.0735C36.9977 31.9529 37.3517 31.892 37.7068 31.892H38.5645C43.1792 31.892 47.05 35.9767 47.05 41.1823V44.4272C47.05 46.0795 45.9539 47.3922 44.5903 47.6338C33.9338 49.5221 23.0662 49.5221 12.4097 47.6338C11.0461 47.3922 9.95 46.0795 9.95 44.4272V41.1823Z" stroke="#B3B3B3" stroke-width="1.9"/>
</svg>
