<svg width="77" height="76" viewBox="0 0 77 76" fill="none" xmlns="http://www.w3.org/2000/svg">
    <circle opacity="0.2" cx="38.5003" cy="38" r="27.1429" fill="#DA1D42" />
    <circle opacity="0.2" cx="38.5001" cy="37.9999" r="32.5714" fill="#DA1D42" />
    <circle opacity="0.2" cx="38.5" cy="38" r="38" fill="#DA1D42" />
    <path
        d="M38.5003 34.1225V39.2925M38.5003 44.4626H38.5132M51.0764 45.7551L40.7362 27.6598C40.5108 27.262 40.1838 26.9311 39.7887 26.7009C39.3936 26.4707 38.9445 26.3494 38.4873 26.3494C38.03 26.3494 37.5809 26.4707 37.1858 26.7009C36.7907 26.9311 36.4637 27.262 36.2383 27.6598L25.8981 45.7551C25.6703 46.1498 25.5508 46.5977 25.5518 47.0534C25.5528 47.5092 25.6743 47.9566 25.9039 48.3502C26.1335 48.7439 26.4632 49.0699 26.8594 49.2951C27.2556 49.5203 27.7043 49.6367 28.1601 49.6326H48.8403C49.2939 49.6322 49.7393 49.5124 50.1319 49.2853C50.5245 49.0582 50.8505 48.7319 51.077 48.339C51.3036 47.9461 51.4228 47.5005 51.4227 47.0469C51.4226 46.5934 51.3031 46.1479 51.0764 45.7551Z"
        stroke="#DA1D42" stroke-width="2.32653" stroke-linecap="round" stroke-linejoin="round" />
</svg>
    