<svg width="328" height="328" viewBox="0 0 328 328" fill="none" xmlns="http://www.w3.org/2000/svg">
  <path fill="#F7F7F9" d="M0 0h328v328H0z"/>
  <path opacity=".1" fill-rule="evenodd" clip-rule="evenodd" d="M93.94 54.67A52.94 52.94 0 0 0 41 107.6v55.1c3.71-1.43 7.04-6.2 10.57-11.25 1.15-1.65 2.32-3.33 3.53-4.93 1.2-1.6 2.15-2.72 3.03-3.77a51.4 51.4 0 0 0 4.16-5.53L77.23 118c81.85-114.5 84.46-17.56 85.57 23.4.24 9.11.42 15.45 1.37 16.07 7.5 4.89 13.8-2.54 21.04-11.09l2-2.35 31.9-42.47c18.95-23.94 30.1-30.12 52.96-30.8a52.78 52.78 0 0 0-38-16.1H93.93ZM287 173.4h-.32c-7.73-.21-18.36-.5-23.2 1.48-7.51 3.06-17.64 17.43-24.78 27.55-1.75 2.48-3.31 4.7-4.62 6.44-5.95 8.86-37.1 52.9-48.25 57.5-9.56 3.94-26.93 3.39-32.27-4.2-1.89-43.67-1.96-44.34-2-45.01-.04-.68-.04-1.37-1.84-46.13-13.03-2.31-19.74 4.24-26 12.67l-34.6 45.63c-2.74 3.47-5.4 7.13-8.06 10.77-7.41 10.16-14.65 20.1-22.85 24.88a52.74 52.74 0 0 0 35.73 13.88h140.12A52.94 52.94 0 0 0 287 225.93v-52.52Z" fill="url(#paint0_linear_14059_53686)"/>
  <defs>
    <linearGradient id="paint0_linear_14059_53686" x1="292.04" y1="54.67" x2="39.08" y2="63.54" gradientUnits="userSpaceOnUse">
      <stop stop-color="#519DFD"/>
      <stop offset=".74" stop-color="#3247FE"/>
      <stop offset="1" stop-color="#7633FB"/>
    </linearGradient>
  </defs>
</svg>
