<svg xmlns="http://www.w3.org/2000/svg" width="64" height="64" viewBox="0 0 64 64" fill="none">
  <g clip-path="url(#clip0_150_3305)">
    <path d="M36.2152 64H27.7849C27.0855 64 26.4976 63.4751 26.4186 62.7803L25.7275 56.697C23.3366 56.1066 21.0542 55.1825 18.9199 53.9404L14.1819 57.7115C13.6346 58.147 12.8477 58.1024 12.3532 57.608L6.392 51.6469C5.8975 51.1524 5.853 50.3655 6.2885 49.8184L9.92488 45.2495C8.54875 43.0629 7.51575 40.7058 6.84412 38.2206L1.21975 37.5815C0.524875 37.5025 0 36.9145 0 36.2152V27.7849C0 27.0855 0.524875 26.4976 1.21975 26.4186L6.54262 25.8137C7.12575 23.1384 8.121 20.5951 9.5105 18.2299L6.2885 14.1816C5.853 13.6345 5.8975 12.8476 6.392 12.3531L12.3532 6.392C12.8477 5.8975 13.6348 5.85287 14.1819 6.2885L18.0645 9.37887C20.4788 7.846 23.0957 6.73575 25.8676 6.0685L26.4186 1.21975C26.4975 0.524875 27.0855 0 27.7847 0H36.2151C36.9145 0 37.5024 0.524875 37.5814 1.21975L38.1324 6.06838C40.9042 6.73563 43.5213 7.846 45.9355 9.37887L49.8181 6.2885C50.3654 5.853 51.1521 5.8975 51.6468 6.392L57.6079 12.3531C58.1024 12.8476 58.1469 13.6345 57.7114 14.1816L54.4894 18.2299C55.8789 20.5951 56.8741 23.1382 57.4572 25.8137L62.7801 26.4186C63.475 26.4976 63.9999 27.0855 63.9999 27.7849V36.2152C63.9999 36.9146 63.475 37.5025 62.7801 37.5815L57.1558 38.2206C56.4842 40.7058 55.4511 43.0629 54.075 45.2496L57.7114 49.8184C58.1469 50.3655 58.1024 51.1524 57.6079 51.6469L51.6468 57.608C51.1521 58.1024 50.3654 58.1472 49.8181 57.7115L45.0801 53.9404C42.9457 55.1824 40.6634 56.1066 38.2725 56.697L37.5814 62.7803C37.5025 63.4751 36.9145 64 36.2152 64ZM29.0125 61.25H34.9875L35.6504 55.4168C35.7175 54.8261 36.1565 54.3455 36.7385 54.2254C39.481 53.6591 42.0758 52.6096 44.4506 51.1058C44.9454 50.7926 45.5841 50.8269 46.0425 51.1916L50.5703 54.7954L54.7954 50.5704L51.3036 46.1834C50.9275 45.711 50.9038 45.0485 51.2449 44.5503C52.8946 42.1409 54.0616 39.484 54.7135 36.6534C54.8444 36.0854 55.3191 35.6615 55.8981 35.5957L61.25 34.9876V29.0125L56.1481 28.4328C55.5433 28.364 55.0556 27.9058 54.9495 27.3062C54.4156 24.292 53.3073 21.4528 51.6553 18.8675C51.3387 18.3722 51.372 17.7306 51.738 17.2709L54.7952 13.4298L50.5701 9.20463L46.8659 12.1529C46.3918 12.5302 45.7265 12.5527 45.2281 12.2085C42.6118 10.4015 39.7111 9.16975 36.6066 8.54762C36.0209 8.43025 35.578 7.94813 35.5105 7.35475L34.9875 2.75H29.0125L28.4893 7.35463C28.4219 7.94813 27.9789 8.43012 27.3932 8.5475C24.2886 9.16975 21.3879 10.4015 18.7716 12.2084C18.2734 12.5526 17.608 12.5301 17.1339 12.1528L13.4296 9.2045L9.2045 13.4296L12.2618 17.2708C12.6278 17.7306 12.661 18.3721 12.3446 18.8674C10.6925 21.4527 9.58412 24.2919 9.05037 27.3061C8.94425 27.9055 8.45662 28.3639 7.85175 28.4326L2.75 29.0125V34.9876L8.10163 35.5957C8.68075 35.6615 9.1555 36.0854 9.28638 36.6534C9.93825 39.4841 11.1053 42.1409 12.755 44.5503C13.0961 45.0485 13.0724 45.711 12.6962 46.1834L9.2045 50.5704L13.4296 54.7954L17.9574 51.1916C18.4158 50.8269 19.0548 50.7926 19.5492 51.1058C21.9241 52.6095 24.5189 53.6591 27.2614 54.2254C27.8434 54.3455 28.2824 54.8263 28.3495 55.4168L29.0125 61.25Z" fill="#685AB5"/>
    <path d="M32 49.8331C21.8358 49.8331 13.5664 41.5639 13.5664 31.3995C13.5664 21.2353 21.8357 12.966 32 12.966C42.1644 12.966 50.4337 21.2353 50.4337 31.3995C50.4337 41.5639 42.1644 49.8331 32 49.8331ZM32 15.7161C23.352 15.7161 16.3164 22.7518 16.3164 31.3996C16.3164 40.0475 23.352 47.0831 32 47.0831C40.648 47.0831 47.6837 40.0475 47.6837 31.3995C47.6837 22.7515 40.648 15.7161 32 15.7161Z" fill="#6347F5"/>
    <path d="M32 42.2086C26.0398 42.2086 21.1909 37.3596 21.1909 31.3995C21.1909 25.4394 26.0398 20.5905 32 20.5905C37.9603 20.5905 42.8092 25.4394 42.8092 31.3995C42.8092 37.3598 37.9603 42.2086 32 42.2086ZM32 23.3406C27.5562 23.3406 23.9409 26.9559 23.9409 31.3996C23.9409 35.8434 27.5562 39.4588 32 39.4588C36.4439 39.4588 40.0592 35.8435 40.0592 31.3996C40.0592 26.9558 36.4439 23.3406 32 23.3406Z" fill="#685AB5"/>
  </g>
  <defs>
    <clipPath id="clip0_150_3305">
      <rect width="64" height="64" fill="white"/>
    </clipPath>
  </defs>
</svg>
