<svg width="40" height="40" viewBox="0 0 1200 1200" fill="none" xmlns="http://www.w3.org/2000/svg">
  <path d="M0 600C0 268.63 268.63 0 600 0s600 268.63 600 600-268.63 600-600 600S0 931.37 0 600Z" fill="#000"/>
  <path d="M764.67 434.67 556.1 536.17l-1.2-113.69-.01-.97-.78.57L446 500.68l-3.47 1.99a187.03 187.03 0 0 0-39.41 30.2c-72.94 72.97-72.94 191.3 0 264.27 72.93 72.98 191.18 72.98 264.12 0a187.43 187.43 0 0 0 27.56-35.02l1.84-3.01L781.39 646l.57-.76-.96-.04-115.68-4.1 100.02-205.77.63-1.3-1.3.63Zm-358.3 4.64L626.32 279.4l1.48 139.95v.8l.72-.35 295.3-143.72-143.57 295.4-.33.69.76.03 143.35 5.09-166.94 222.76-.01.02-.01.02a260.4 260.4 0 0 1-38.28 48.64c-101.4 101.48-265.82 101.48-367.23 0-101.41-101.47-101.41-265.99 0-367.46a260.02 260.02 0 0 1 54.76-41.94h.03l.02-.02Z" fill="#8AE06B" stroke="#8AE06B"/>
</svg>
