<svg width="40" height="40" viewBox="0 0 40 40" fill="none" xmlns="http://www.w3.org/2000/svg">
  <g clip-path="url(#clip0_1926_258399)">
    <path d="M0 40V0h40v40H0Z" fill="#fff"/>
    <path d="m28.52 14.07-1.58-2.35-.87.57 1.59 2.35.86-.57ZM30.4 16.86l-1.59-2.36-.86.57 1.58 2.35.87-.56ZM28.25 10.86 31.72 16l-.87.57-3.47-5.14.87-.57ZM31.12 12.36 29.53 10l-.86.57 1.59 2.36.86-.57ZM32.13 15.72l.87-.57-1.59-2.36-.86.57 1.58 2.36ZM13.07 28.27 9.6 23.13l.87-.57 3.46 5.14-.86.57ZM9.9 26.35 8.3 23.99l.87-.57 1.58 2.36-.86.57ZM11.76 29.15l-1.59-2.36.87-.57 1.59 2.36-.87.57ZM7.88 24.3l3.46 5.13-.86.57L7 24.86l.87-.57ZM10.47 17.42l3.46-5.13-.86-.57-3.47 5.14.87.56ZM12.64 11.43l-3.46 5.14L8.3 16l3.47-5.14.86.57ZM11.33 10.57l-.86-.57L7 15.15l.87.57 3.46-5.15ZM26.07 27.68l1.59-2.35.86.57-1.58 2.35-.87-.57ZM28.81 25.5l1.6-2.36-.88-.58-1.58 2.37.86.56ZM27.38 28.58l1.59-2.35.87.57-1.6 2.36-.86-.58ZM31.7 23.97l-1.59 2.35-.86-.57 1.59-2.35.86.57ZM28.67 29.42l.86.57 1.6-2.36-.87-.56-1.6 2.35ZM30.55 26.64l.86.56L33 24.85l-.87-.57-1.58 2.36Z" fill="#010101"/>
    <path d="M15.67 20.86c1.43.94 3.37.56 4.33-.86a3.15 3.15 0 0 1 4.33-.86 3.06 3.06 0 0 1 .87 4.28 6.13 6.13 0 0 0-1.73-8.57 6.3 6.3 0 0 0-8.67 1.72 3.07 3.07 0 0 0 .87 4.29Z" fill="#CD2E3A"/>
    <path d="M16.53 25.14a6.29 6.29 0 0 0 8.67-1.72 3.06 3.06 0 0 0-.87-4.28A3.15 3.15 0 0 0 20 20a3.15 3.15 0 0 1-4.33.86 3.07 3.07 0 0 1-.87-4.29 6.14 6.14 0 0 0 1.73 8.57Z" fill="#0047A0"/>
  </g>
  <rect x=".5" y=".5" width="39" height="39" rx="19.5" stroke="#F3F3F3"/>
  <defs>
    <clipPath id="clip0_1926_258399">
      <rect width="40" height="40" rx="20" fill="#fff"/>
    </clipPath>
  </defs>
</svg>
