<svg width="48" height="48" viewBox="0 0 48 48" fill="none" xmlns="http://www.w3.org/2000/svg">
  <circle cx="24" cy="24" r="24" fill="#2B63F1"/>
  <path d="M9.47 19.2h3.22c1.54 0 2.7.4 3.5 1.18.8.77 1.2 1.88 1.2 3.33v.78c0 1.43-.41 2.54-1.21 3.33S14.2 29 12.69 29H9.47v-9.8Zm1.68 1.48v6.84h1.54c.97 0 1.7-.25 2.18-.75.5-.5.75-1.25.75-2.28v-.78c0-1.02-.25-1.78-.75-2.27-.49-.5-1.22-.76-2.18-.76h-1.54Zm11.24 8.45c-.5 0-.96-.08-1.36-.23-.4-.16-.75-.38-1.04-.67a3.1 3.1 0 0 1-.67-1.08c-.15-.42-.22-.9-.22-1.43v-.44c0-.54.07-1.01.22-1.43a2.96 2.96 0 0 1 1.7-1.74c.41-.16.86-.24 1.37-.24 1.01 0 1.82.32 2.4.94.6.63.89 1.52.89 2.69v.55h-4.96c.05.58.21 1 .49 1.27.28.25.67.38 1.18.38.5 0 .85-.09 1.07-.25.24-.18.4-.39.47-.62h1.68c-.08.33-.2.63-.35.91-.16.28-.37.52-.63.73-.27.2-.58.37-.96.49-.37.11-.8.17-1.28.17Zm0-5.83c-.48 0-.85.12-1.12.35-.27.24-.45.6-.52 1.1h3.27c-.06-.51-.23-.89-.51-1.11a1.7 1.7 0 0 0-1.12-.34Zm5.36-4.1h6.3v1.48h-4.62v2.68h3.78v1.48h-3.78V29h-1.68v-9.8ZM35.9 22h1.62v7h-1.62v-7Zm.8-.84c-.29 0-.54-.1-.75-.3-.2-.2-.3-.45-.3-.75s.1-.55.3-.74c.2-.2.46-.31.76-.31.29 0 .54.1.74.3.2.2.3.45.3.75a1.03 1.03 0 0 1-1.04 1.05Z" fill="#fff"/>
</svg>
