<svg width="40" height="40" viewBox="0 0 40 40" fill="none" xmlns="http://www.w3.org/2000/svg">
  <rect width="40" height="40" rx="20" fill="#2B63F1"/>
  <path d="M12.82 24H9.86v-8.73h3.02c.86 0 1.6.18 2.23.53.63.34 1.1.84 1.44 1.5.34.64.5 1.42.5 2.33 0 .9-.17 1.69-.5 2.34a3.5 3.5 0 0 1-1.46 1.5c-.63.36-1.39.53-2.27.53Zm-1.38-1.37h1.3c.6 0 1.12-.1 1.52-.33.4-.22.71-.56.92-1a4 4 0 0 0 .3-1.67c0-.67-.1-1.22-.3-1.66a2.1 2.1 0 0 0-.9-1c-.4-.22-.9-.33-1.5-.33h-1.34v6Zm9.47 1.5c-.66 0-1.23-.14-1.7-.41a2.77 2.77 0 0 1-1.1-1.17c-.26-.5-.38-1.1-.38-1.78 0-.68.12-1.27.38-1.78a2.9 2.9 0 0 1 2.71-1.62c.4 0 .79.06 1.15.2.36.12.68.32.95.6.28.26.5.6.66 1.02.16.42.24.91.24 1.49v.47h-5.37V20.1h3.89c0-.3-.07-.56-.2-.79a1.4 1.4 0 0 0-.52-.55c-.22-.13-.48-.2-.77-.2-.32 0-.6.08-.84.23-.23.15-.42.35-.55.6-.13.24-.2.51-.2.8v.91c0 .38.07.7.2.98.14.27.34.48.59.62.25.15.54.22.88.22.22 0 .42-.04.6-.1a1.19 1.19 0 0 0 .78-.75l1.44.16c-.09.39-.26.72-.52 1-.25.28-.57.5-.97.66-.4.15-.85.23-1.35.23Zm7.05-6.68v1.2h-3.87v-1.2h3.87ZM25.06 24v-7.16c0-.44.09-.81.27-1.1.18-.3.43-.51.74-.66a2.4 2.4 0 0 1 1.03-.22 3.55 3.55 0 0 1 1.17.18l-.3 1.2a2.68 2.68 0 0 0-.58-.1c-.3 0-.5.07-.61.21-.12.14-.18.33-.18.59V24h-1.55Zm3.62 0v-6.55h1.55V24h-1.55Zm.78-7.47a.9.9 0 0 1-.63-.25.78.78 0 0 1-.26-.59c0-.23.08-.43.26-.6a.9.9 0 0 1 .63-.24c.25 0 .46.08.63.25a.78.78 0 0 1 0 1.18.89.89 0 0 1-.63.25Z" fill="#fff"/>
</svg>
