<svg width="40" height="40" viewBox="0 0 40 40" fill="none" xmlns="http://www.w3.org/2000/svg">
  <rect width="40" height="40" rx="20" fill="#2B63F1"/>
  <path d="M15.83 22.54a.83.83 0 0 0-.59.25.85.85 0 0 0-.24.6v.7c0 1.13.44 2.22 1.22 3.03a4.28 4.28 0 0 0 2.95 1.33v1.7a.83.83 0 0 0 1.42.6.85.85 0 0 0 .24-.6v-1.7c1-.04 1.94-.41 2.69-1.07a4.39 4.39 0 0 0-1.23-7.36l-3.96-1.61a2.72 2.72 0 0 1-.7-4.56c.47-.4 1.07-.62 1.68-.62h1.38c.7 0 1.37.28 1.87.79.5.5.77 1.18.77 1.9v.7c0 .22.1.43.25.6a.83.83 0 0 0 1.18 0 .85.85 0 0 0 .24-.6v-.7c0-1.14-.44-2.23-1.22-3.04a4.28 4.28 0 0 0-2.95-1.33v-1.7a.85.85 0 0 0-.24-.6.83.83 0 0 0-1.18 0 .85.85 0 0 0-.24.6v1.7c-1 .04-1.94.41-2.69 1.07a4.39 4.39 0 0 0 1.23 7.36l3.96 1.61c.57.23 1.04.66 1.34 1.2a2.72 2.72 0 0 1-.64 3.36c-.47.4-1.07.62-1.68.62H19.3c-.7 0-1.37-.28-1.87-.79-.5-.5-.77-1.18-.77-1.9v-.7a.85.85 0 0 0-.25-.6.83.83 0 0 0-.59-.24Z" fill="#fff"/>
</svg>
