<svg width="24" height="24" viewBox="0 0 24 24" fill="none" xmlns="http://www.w3.org/2000/svg">
<path d="M19.8057 5.37061C17.9366 3.86654 14.9799 3.61158 14.8533 3.60241C14.657 3.5859 14.4699 3.69595 14.3892 3.87754C14.3819 3.88855 14.3177 4.03712 14.2462 4.26824C15.4824 4.47734 17.0012 4.89738 18.375 5.7503C18.5951 5.88604 18.663 6.17584 18.5273 6.39595C18.4374 6.54086 18.2852 6.61973 18.1274 6.61973C18.043 6.61973 17.9568 6.59589 17.8798 6.5482C15.5173 5.08264 12.5678 5.00927 11.9992 5.00927C11.4306 5.00927 8.47931 5.08264 6.11865 6.5482C5.89854 6.68576 5.60873 6.6179 5.473 6.39779C5.33543 6.17584 5.40329 5.88787 5.6234 5.7503C6.99725 4.89921 8.516 4.47734 9.75228 4.27007C9.68074 4.03712 9.61654 3.89038 9.61104 3.87754C9.5285 3.69595 9.34324 3.58223 9.14514 3.60241C9.01858 3.61158 6.06179 3.86654 4.16702 5.39079C3.17836 6.30608 1.19922 11.6547 1.19922 16.2788C1.19922 16.3614 1.22123 16.4402 1.26158 16.5118C2.62626 18.911 6.3516 19.5383 7.20085 19.5658C7.20452 19.5658 7.21002 19.5658 7.21552 19.5658C7.36593 19.5658 7.50717 19.4943 7.59521 19.3732L8.45363 18.1919C6.13699 17.594 4.95391 16.5778 4.88604 16.5173C4.69161 16.3467 4.67327 16.0496 4.84569 15.8551C5.01627 15.6607 5.31342 15.6424 5.50785 15.8129C5.53536 15.8386 7.71444 17.6875 11.9992 17.6875C16.2913 17.6875 18.4704 15.8313 18.4924 15.8129C18.6869 15.6442 18.9822 15.6607 19.1546 15.857C19.3252 16.0514 19.3068 16.3467 19.1124 16.5173C19.0445 16.5778 17.8614 17.594 15.5448 18.1919L16.4032 19.3732C16.4913 19.4943 16.6325 19.5658 16.7829 19.5658C16.7884 19.5658 16.7939 19.5658 16.7976 19.5658C17.6468 19.5383 21.3722 18.911 22.7369 16.5118C22.7772 16.4402 22.7992 16.3614 22.7992 16.2788C22.7992 11.6547 20.8201 6.30608 19.8057 5.37061ZM8.94704 14.4006C8.0391 14.4006 7.30357 13.5605 7.30357 12.5223C7.30357 11.4841 8.0391 10.6441 8.94704 10.6441C9.85499 10.6441 10.5905 11.4841 10.5905 12.5223C10.5905 13.5605 9.85499 14.4006 8.94704 14.4006ZM15.0514 14.4006C14.1434 14.4006 13.4079 13.5605 13.4079 12.5223C13.4079 11.4841 14.1434 10.6441 15.0514 10.6441C15.9593 10.6441 16.6949 11.4841 16.6949 12.5223C16.6949 13.5605 15.9593 14.4006 15.0514 14.4006Z" fill="#C5E4F3" />
</svg>
