<svg width="150" height="28" viewBox="0 0 150 28" fill="none" xmlns="http://www.w3.org/2000/svg">
<g clip-path="url(#clip0_8767_30584)">
<path d="M32.47 5.3H41.92V7.526H34.99V11.327H40.66V13.553H34.99V17.774H41.92V20H32.47V5.3Z" fill="#C5E4F3"/>
<path d="M43.261 5.3H45.991L50.191 17.06L54.055 5.3H56.701L51.661 20H48.721L43.261 5.3Z" fill="#C5E4F3"/>
<path d="M58.6843 5.3H68.1343V7.526H61.2043V11.327H66.8743V13.553H61.2043V17.774H68.1343V20H58.6843V5.3Z" fill="#C5E4F3"/>
<path d="M76.3002 14.456H73.2552V20H70.7352V5.3H75.7962C77.7562 5.3 79.1842 5.706 80.0802 6.518C80.9902 7.33 81.4452 8.45 81.4452 9.878C81.4452 10.858 81.2212 11.705 80.7732 12.419C80.3252 13.119 79.6392 13.644 78.7152 13.994L81.8652 20H79.0092L76.3002 14.456ZM73.2552 7.526V12.23H75.7962C76.8462 12.23 77.6092 12.02 78.0852 11.6C78.5612 11.166 78.7992 10.592 78.7992 9.878C78.7992 9.15 78.5612 8.576 78.0852 8.156C77.6092 7.736 76.8462 7.526 75.7962 7.526H73.2552Z" fill="#C5E4F3"/>
<path d="M98.3017 7.043L94.9627 20H93.0727L88.9777 5.3H90.4897L94.0177 18.257L97.3777 5.3H99.2677L102.838 18.278L106.198 5.3H107.668L103.783 20H101.893L98.3017 7.043Z" fill="#C5E4F3"/>
<path d="M111.856 20.147C110.806 20.147 110.001 19.881 109.441 19.349C108.881 18.803 108.601 18.054 108.601 17.102C108.601 16.598 108.678 16.143 108.832 15.737C109 15.317 109.259 14.967 109.609 14.687C109.973 14.407 110.435 14.19 110.995 14.036C111.555 13.882 112.227 13.805 113.011 13.805H115.405V12.86C115.405 12.104 115.216 11.551 114.838 11.201C114.474 10.837 113.865 10.655 113.011 10.655C112.241 10.655 111.66 10.809 111.268 11.117C110.89 11.411 110.673 11.817 110.617 12.335H109.126C109.154 11.901 109.252 11.502 109.42 11.138C109.588 10.774 109.833 10.459 110.155 10.193C110.477 9.927 110.876 9.724 111.352 9.584C111.828 9.43 112.381 9.353 113.011 9.353C114.257 9.353 115.195 9.661 115.825 10.277C116.469 10.893 116.791 11.754 116.791 12.86V20H115.72L115.51 18.026C115.146 18.698 114.642 19.223 113.998 19.601C113.368 19.965 112.654 20.147 111.856 20.147ZM111.961 18.845C112.437 18.845 112.885 18.761 113.305 18.593C113.725 18.411 114.089 18.173 114.397 17.879C114.719 17.571 114.964 17.221 115.132 16.829C115.314 16.423 115.405 15.996 115.405 15.548V15.065H113.011C111.933 15.065 111.163 15.254 110.701 15.632C110.253 16.01 110.029 16.5 110.029 17.102C110.029 17.634 110.19 18.061 110.512 18.383C110.848 18.691 111.331 18.845 111.961 18.845Z" fill="#C5E4F3"/>
<path d="M123.276 20C122.394 20 121.715 19.769 121.239 19.307C120.777 18.831 120.546 18.138 120.546 17.228V5.3H121.932V17.06C121.932 18.18 122.436 18.74 123.444 18.74H124.116V20H123.276Z" fill="#C5E4F3"/>
<path d="M129.564 20C128.682 20 128.003 19.769 127.527 19.307C127.065 18.831 126.834 18.138 126.834 17.228V5.3H128.22V17.06C128.22 18.18 128.724 18.74 129.732 18.74H130.404V20H129.564Z" fill="#C5E4F3"/>
<path d="M137.008 20.147C135.622 20.147 134.523 19.727 133.711 18.887C132.899 18.033 132.493 16.808 132.493 15.212V14.288C132.493 12.706 132.899 11.488 133.711 10.634C134.537 9.78 135.636 9.353 137.008 9.353C138.38 9.353 139.472 9.78 140.284 10.634C141.11 11.488 141.523 12.706 141.523 14.288V15.149H133.921V15.212C133.921 16.43 134.201 17.34 134.761 17.942C135.321 18.544 136.07 18.845 137.008 18.845C137.876 18.845 138.534 18.663 138.982 18.299C139.444 17.935 139.78 17.48 139.99 16.934H141.418C141.306 17.382 141.138 17.802 140.914 18.194C140.69 18.586 140.396 18.929 140.032 19.223C139.668 19.503 139.234 19.727 138.73 19.895C138.226 20.063 137.652 20.147 137.008 20.147ZM137.008 10.655C136.098 10.655 135.37 10.942 134.824 11.516C134.292 12.076 133.991 12.881 133.921 13.931H140.074C140.018 12.839 139.71 12.02 139.15 11.474C138.604 10.928 137.89 10.655 137.008 10.655Z" fill="#C5E4F3"/>
<path d="M143.504 9.5H145.394V6.56H146.78V9.5H149.594V10.76H146.78V17.06C146.78 18.18 147.298 18.74 148.334 18.74H149.804V20H148.166C147.256 20 146.563 19.769 146.087 19.307C145.625 18.831 145.394 18.138 145.394 17.228V10.76H143.504V9.5Z" fill="#C5E4F3"/>
<path d="M0 11.7135L7.62943 4H20V16.3967L12.402 24V11.7135H0Z" fill="#C5E4F3"/>
</g>
<defs>
<clipPath id="clip0_8767_30584">
<rect width="149.804" height="28" fill="white"/>
</clipPath>
</defs>
</svg>
