<svg width="24" height="24" viewBox="0 0 24 24" fill="none" xmlns="http://www.w3.org/2000/svg">
<path d="M12 1.20001C6.03295 1.20001 1.19995 6.15855 1.19995 12.2741C1.19995 17.1678 4.29415 21.3178 8.58445 22.7809C9.12445 22.8851 9.32245 22.5424 9.32245 22.2484C9.32245 21.9855 9.31345 21.2887 9.30895 20.3655C6.30475 21.0332 5.67115 18.8798 5.67115 18.8798C5.17975 17.6017 4.46965 17.2598 4.46965 17.2598C3.49135 16.5733 4.54525 16.5874 4.54525 16.5874C5.62975 16.6644 6.19945 17.7285 6.19945 17.7285C7.16245 19.4217 8.72755 18.9324 9.34495 18.6497C9.44215 17.9332 9.72025 17.4458 10.029 17.1687C7.63045 16.8917 5.10955 15.9394 5.10955 11.6965C5.10955 10.4879 5.52805 9.49992 6.22105 8.72515C6.09955 8.44529 5.73505 7.31929 6.31555 5.79417C6.31555 5.79417 7.22005 5.49741 9.28555 6.92956C10.1496 6.68351 11.0676 6.56143 11.9855 6.55579C12.9036 6.56143 13.8216 6.68351 14.6855 6.92956C16.7375 5.49741 17.642 5.79417 17.642 5.79417C18.2225 7.31929 17.858 8.44529 17.75 8.72515C18.4385 9.49992 18.857 10.4879 18.857 11.6965C18.857 15.9507 16.3326 16.887 13.9296 17.1594C14.3076 17.4918 14.6586 18.1708 14.6586 19.2085C14.6586 20.6904 14.6451 21.8812 14.6451 22.2409C14.6451 22.5311 14.8341 22.8776 15.3875 22.7668C19.7085 21.3131 22.7999 17.1603 22.7999 12.2741C22.7999 6.15855 17.9642 1.20001 12 1.20001Z" fill="#C5E4F3"/>
</svg>
