<svg width="24" height="24" viewBox="0 0 24 24" fill="none" xmlns="http://www.w3.org/2000/svg">
<path fill-rule="evenodd" clip-rule="evenodd" d="M3.52522 3C3.23515 3 3 3.23515 3 3.52522V6.97493C3 7.265 3.23515 7.50014 3.52522 7.50014H6.97485C7.26492 7.50014 7.50007 7.265 7.50007 6.97492V3.52522C7.50007 3.23515 7.26492 3 6.97485 3H3.52522ZM10.275 3C9.98497 3 9.74982 3.23515 9.74982 3.52522V14.1752C9.74982 14.4652 9.98497 14.7004 10.275 14.7004H20.4748C20.7649 14.7004 21 14.4652 21 14.1752V3.52522C21 3.23515 20.7649 3 20.4748 3H10.275ZM3 10.2752C3 9.98515 3.23515 9.75 3.52522 9.75H6.97485C7.26492 9.75 7.50007 9.98515 7.50007 10.2752V13.7249C7.50007 14.015 7.26492 14.2501 6.97485 14.2501H3.52522C3.23515 14.2501 3 14.015 3 13.7249V10.2752ZM3.52522 16.4998C3.23515 16.4998 3 16.735 3 17.025V20.4747C3 20.7648 3.23515 21 3.52522 21H6.97485C7.26492 21 7.50007 20.7648 7.50007 20.4747V17.025C7.50007 16.735 7.26492 16.4998 6.97485 16.4998H3.52522ZM9.74982 17.025C9.74982 16.735 9.98497 16.4998 10.275 16.4998H13.7247C14.0147 16.4998 14.2499 16.735 14.2499 17.025V20.4747C14.2499 20.7648 14.0147 21 13.7247 21H10.275C9.98497 21 9.74982 20.7648 9.74982 20.4747V17.025ZM17.0249 16.4998C16.7348 16.4998 16.4996 16.735 16.4996 17.025V20.4747C16.4996 20.7648 16.7348 21 17.0249 21H20.4745C20.7646 21 20.9997 20.7648 20.9997 20.4747V17.025C20.9997 16.735 20.7646 16.4998 20.4745 16.4998H17.0249Z" fill="#C5E4F3"/>
</svg>
