<svg width="123" height="44" viewBox="0 0 123 44" fill="none" xmlns="http://www.w3.org/2000/svg">
<path d="M122.553 29.0718H119.74L113.986 22.26C113.851 22.1002 113.604 22.1002 113.469 22.26L107.72 29.0711H104.906L111.412 21.3649C111.937 20.7419 111.937 19.8341 111.412 19.2111L105.406 12.1016H108.219L113.47 18.3167C113.604 18.4765 113.852 18.4765 113.987 18.3167L119.241 12.1016H122.054L116.046 19.2111C115.52 19.8341 115.52 20.7426 116.046 21.3656L122.554 29.0711L122.553 29.0718Z" fill="#ffffff"/>
<path d="M40.214 16.5039C40.214 17.2604 40.5601 17.8614 41.2531 18.3061C41.9453 18.7515 42.7813 19.1124 43.7611 19.3902C44.7401 19.6686 45.7198 19.9464 46.6988 20.2241C47.6778 20.5019 48.5045 21.0056 49.1789 21.733C49.8533 22.4611 50.1908 23.4145 50.1908 24.5923C50.1908 26.0407 49.6151 27.2171 48.4652 28.1222C47.3146 29.0272 45.8285 29.4797 44.0063 29.4797C42.3665 29.4797 40.9706 29.1174 39.8207 28.3935C38.67 27.6696 37.8669 26.7305 37.4121 25.5762L39.3258 24.4566C39.6448 25.3389 40.2197 26.0343 41.0514 26.5437C41.8824 27.053 42.8679 27.3073 44.0071 27.3073C45.1463 27.3073 46.0573 27.0871 46.809 26.646C47.5606 26.2048 47.9367 25.5215 47.9367 24.5944C47.9367 23.8258 47.5949 23.2156 46.9112 22.763C46.2275 22.3112 45.3959 21.9461 44.4161 21.6683C43.4364 21.3906 42.4574 21.1121 41.4784 20.8344C40.4993 20.5566 39.6684 20.0608 38.9847 19.3482C38.3017 18.6357 37.9599 17.7023 37.9599 16.5486C37.9599 15.1684 38.512 14.0147 39.6169 13.0869C40.7217 12.1592 42.1163 11.6953 43.8025 11.6953C45.192 11.6953 46.4106 12.0072 47.4583 12.6288C48.506 13.251 49.2805 14.0936 49.7818 15.157L47.9024 16.2432C47.2416 14.6597 45.875 13.8677 43.8025 13.8677C42.8228 13.8677 41.9797 14.0957 41.2738 14.5518C40.5673 15.0078 40.2147 15.6585 40.2147 16.5046L40.214 16.5039Z" fill="#ffffff"/>
<path d="M63.08 11.696C65.214 11.6911 67.2729 12.4227 68.8676 13.8314C70.9029 15.6287 71.9205 17.8813 71.9205 20.5893C71.9205 23.0785 71.0602 25.1826 69.341 26.9024C67.6211 28.6223 65.543 29.4818 63.1058 29.4818C60.4398 29.4818 58.338 28.5185 56.8012 26.5906C56.6045 26.3441 56.204 26.4876 56.204 26.8016V35.8625H53.9492V12.1031H56.204V14.3763C56.204 14.691 56.6045 14.8338 56.8012 14.5873C58.333 12.6657 60.4262 11.7017 63.0807 11.6953L63.08 11.696ZM58.1513 25.3574C59.45 26.6588 61.044 27.3088 62.9349 27.3088C64.8257 27.3088 66.4197 26.6588 67.7184 25.3574C69.0171 24.0566 69.6657 22.4668 69.6657 20.5886C69.6657 18.7103 69.0163 17.1212 67.7184 15.8198C66.4204 14.5191 64.8257 13.8684 62.9349 13.8684C61.044 13.8684 59.45 14.5191 58.1513 15.8198C56.8534 17.1212 56.204 18.711 56.204 20.5886C56.204 22.4661 56.8534 24.0566 58.1513 25.3574Z" fill="#ffffff"/>
<path d="M89.3598 12.1031H91.6146V29.0734H89.3598V26.8002C89.3598 26.4855 88.9593 26.342 88.7626 26.5892C87.2258 28.5172 85.1233 29.4804 82.458 29.4804C80.0201 29.4804 77.942 28.6209 76.2221 26.901C74.5022 25.1819 73.6426 23.0778 73.6426 20.5879C73.6426 17.8799 74.6602 15.6273 76.6962 13.83C78.2917 12.4221 80.3491 11.6904 82.4831 11.6953C85.1369 11.7017 87.2301 12.6657 88.7619 14.5873C88.9586 14.8338 89.3591 14.691 89.3591 14.3763V12.1031H89.3598ZM77.8454 25.3567C79.1441 26.6581 80.7381 27.3081 82.6289 27.3081C84.5198 27.3081 86.1138 26.6581 87.4125 25.3567C88.7111 24.056 89.3598 22.4661 89.3598 20.5879C89.3598 18.7096 88.7104 17.1205 87.4125 15.8191C86.1145 14.5184 84.5198 13.8677 82.6289 13.8677C80.7381 13.8677 79.1441 14.5184 77.8454 15.8191C76.5474 17.1205 75.8981 18.7103 75.8981 20.5879C75.8981 22.4654 76.5474 24.056 77.8454 25.3567Z" fill="#ffffff"/>
<path d="M99.2533 13.955C100.335 12.5371 101.934 11.8281 104.052 11.8281V14.0005C102.502 14.0005 101.216 14.4537 100.191 15.358C99.166 16.263 98.6533 17.6888 98.6533 19.6345V29.0698H96.3984V12.0995H98.6533V13.7454C98.6533 14.0623 99.0609 14.2072 99.2533 13.9543V13.955Z" fill="#ffffff"/>
<path d="M1.58545 29.1502L0.0021454 27.5774L4.0784 23.5282C5.90342 21.7153 5.90342 18.7651 4.0784 16.9522L0 12.9009L1.5833 11.3281L5.66171 15.3794C8.3599 18.0597 8.3599 22.4207 5.66171 25.101L1.58545 29.1502Z" fill="url(#paint0_linear_2481_47392)"/>
<path d="M19.7054 32.4759L15.6292 28.4267C13.8041 26.6138 10.8342 26.6138 9.00917 28.4267L4.93291 32.4759L3.34961 30.9031L7.42587 26.8539C10.1241 24.1737 14.5143 24.1737 17.2125 26.8539L21.2887 30.9031L19.7054 32.4759Z" fill="url(#paint1_linear_2481_47392)"/>
<path d="M23.053 29.148L18.9768 25.0989C16.2786 22.4186 16.2786 18.0576 18.9768 15.3773L23.053 11.3281L24.6363 12.9009L20.5601 16.9501C18.7351 18.763 18.7351 21.7132 20.5601 23.5261L24.6363 27.5752L23.053 29.148Z" fill="url(#paint2_linear_2481_47392)"/>
<path d="M12.319 15.6345C10.5469 15.6345 8.7748 14.9646 7.42606 13.6241L3.34766 9.57278L4.93096 8L9.00936 12.0513C10.8344 13.8642 13.8043 13.8642 15.6294 12.0513L19.7056 8.00213L21.2889 9.57491L17.2127 13.6241C15.8632 14.9639 14.0918 15.6345 12.3197 15.6345H12.319Z" fill="url(#paint3_linear_2481_47392)"/>
<defs>
<linearGradient id="paint0_linear_2481_47392" x1="3.84241" y1="29.0535" x2="3.84241" y2="11.4553" gradientUnits="userSpaceOnUse">
<stop stop-color="#00B2E3" stop-opacity="0"/>
<stop offset="0.07" stop-color="#05B3E3" stop-opacity="0.03"/>
<stop offset="0.19" stop-color="#13B7E3" stop-opacity="0.13"/>
<stop offset="0.33" stop-color="#2ABDE4" stop-opacity="0.28"/>
<stop offset="0.49" stop-color="#4AC5E5" stop-opacity="0.49"/>
<stop offset="0.66" stop-color="#73D0E6" stop-opacity="0.75"/>
<stop offset="0.81" stop-color="#9ADBE8"/>
</linearGradient>
<linearGradient id="paint1_linear_2481_47392" x1="21.2215" y1="28.6597" x2="3.38322" y2="28.6597" gradientUnits="userSpaceOnUse">
<stop stop-color="#00B2E3" stop-opacity="0"/>
<stop offset="0.07" stop-color="#05B3E3" stop-opacity="0.03"/>
<stop offset="0.19" stop-color="#13B7E3" stop-opacity="0.13"/>
<stop offset="0.33" stop-color="#2ABDE4" stop-opacity="0.28"/>
<stop offset="0.49" stop-color="#4AC5E5" stop-opacity="0.49"/>
<stop offset="0.66" stop-color="#73D0E6" stop-opacity="0.75"/>
<stop offset="0.81" stop-color="#9ADBE8"/>
</linearGradient>
<linearGradient id="paint2_linear_2481_47392" x1="20.7946" y1="11.3565" x2="20.7946" y2="28.947" gradientUnits="userSpaceOnUse">
<stop stop-color="#00B2E3" stop-opacity="0"/>
<stop offset="0.07" stop-color="#05B3E3" stop-opacity="0.03"/>
<stop offset="0.19" stop-color="#13B7E3" stop-opacity="0.13"/>
<stop offset="0.33" stop-color="#2ABDE4" stop-opacity="0.28"/>
<stop offset="0.49" stop-color="#4AC5E5" stop-opacity="0.49"/>
<stop offset="0.66" stop-color="#73D0E6" stop-opacity="0.75"/>
<stop offset="0.81" stop-color="#9ADBE8"/>
</linearGradient>
<linearGradient id="paint3_linear_2481_47392" x1="3.30332" y1="11.8169" x2="21.2989" y2="11.8169" gradientUnits="userSpaceOnUse">
<stop stop-color="#00B2E3" stop-opacity="0"/>
<stop offset="0.07" stop-color="#05B3E3" stop-opacity="0.03"/>
<stop offset="0.19" stop-color="#13B7E3" stop-opacity="0.13"/>
<stop offset="0.33" stop-color="#2ABDE4" stop-opacity="0.28"/>
<stop offset="0.49" stop-color="#4AC5E5" stop-opacity="0.49"/>
<stop offset="0.66" stop-color="#73D0E6" stop-opacity="0.75"/>
<stop offset="0.81" stop-color="#9ADBE8"/>
</linearGradient>
</defs>
</svg>
