<svg width="24" height="24" viewBox="0 0 24 24" fill="none" xmlns="http://www.w3.org/2000/svg">
<path fill-rule="evenodd" clip-rule="evenodd" d="M13.6744 11.8372C13.6744 15.6133 10.6133 18.6744 6.83721 18.6744C3.06112 18.6744 0 15.6133 0 11.8372C0 8.06112 3.06112 5 6.83721 5C10.6133 5 13.6744 8.06112 13.6744 11.8372ZM20.9302 11.8372C20.9302 15.4592 19.4309 18.3953 17.5814 18.3953C15.7319 18.3953 14.2326 15.4592 14.2326 11.8372C14.2326 8.21523 15.7319 5.27905 17.5814 5.27905C19.4309 5.27905 20.9302 8.21523 20.9302 11.8372ZM22.7442 17.5582C23.4378 17.5582 24 14.9343 24 11.6977C24 8.46105 23.4378 5.83723 22.7442 5.83723C22.0506 5.83723 21.4884 8.46105 21.4884 11.6977C21.4884 14.9343 22.0506 17.5582 22.7442 17.5582Z" fill="#C5E4F3"/>
</svg>
