<svg width="24" height="24" viewBox="0 0 24 24" fill="none" xmlns="http://www.w3.org/2000/svg">
<path d="M22 12.1446C22 10.9157 21.0143 9.93976 19.8136 9.93976C19.2222 9.93976 18.6846 10.1747 18.2903 10.5542C16.7849 9.46988 14.724 8.76506 12.4301 8.6747L13.4337 3.93976L16.6953 4.64458C16.7312 5.4759 17.4122 6.14458 18.2545 6.14458C19.1147 6.14458 19.8136 5.43976 19.8136 4.57229C19.8136 3.70482 19.1147 3 18.2545 3C17.6452 3 17.1075 3.36145 16.8566 3.88554L13.2186 3.10843C13.1111 3.09036 13.0036 3.10843 12.9319 3.16265C12.8423 3.21687 12.7885 3.30723 12.7706 3.41566L11.6595 8.69277C9.32975 8.76506 7.23298 9.46988 5.70968 10.5723C5.31541 10.1928 4.77778 9.95783 4.18638 9.95783C2.96774 9.95783 2 10.9518 2 12.1626C2 13.0663 2.53764 13.8253 3.29032 14.1687C3.25448 14.3855 3.23656 14.6024 3.23656 14.8373C3.23656 18.2349 7.16129 21 12 21C16.8387 21 20.7634 18.253 20.7634 14.8373C20.7634 14.6205 20.7455 14.3855 20.7097 14.1687C21.4624 13.8253 22 13.0482 22 12.1446ZM6.98208 13.7169C6.98208 12.8494 7.681 12.1446 8.54122 12.1446C9.40143 12.1446 10.1004 12.8494 10.1004 13.7169C10.1004 14.5843 9.40143 15.2892 8.54122 15.2892C7.681 15.3072 6.98208 14.5843 6.98208 13.7169ZM15.7097 17.8916C14.6344 18.9759 12.5914 19.0482 12 19.0482C11.3907 19.0482 9.34767 18.9578 8.29032 17.8916C8.12903 17.7289 8.12903 17.4759 8.29032 17.3133C8.45161 17.1506 8.70251 17.1506 8.8638 17.3133C9.5448 18 10.9785 18.2349 12 18.2349C13.0215 18.2349 14.4731 18 15.1362 17.3133C15.2975 17.1506 15.5484 17.1506 15.7097 17.3133C15.853 17.4759 15.853 17.7289 15.7097 17.8916ZM15.4229 15.3072C14.5627 15.3072 13.8638 14.6024 13.8638 13.7349C13.8638 12.8675 14.5627 12.1626 15.4229 12.1626C16.2832 12.1626 16.9821 12.8675 16.9821 13.7349C16.9821 14.5843 16.2832 15.3072 15.4229 15.3072Z" fill="#C5E4F3"/>
</svg>
