<svg width="226" height="44" viewBox="0 0 226 44" fill="none" xmlns="http://www.w3.org/2000/svg">
  <path fill-rule="evenodd" clip-rule="evenodd" d="M223 15.3c-.2 0-.3-.2-.3-.5v-.6c.7-4 1.2-8 1.6-12 .2-1.4.5-2.2 1-2.2.4 0 .7.3.7 1.1 0 .3 0 .7-.2 1-.1 1.5-.4 3.3-.9 5.5l-1.1 5.4-.3 1.6c0 .4-.2.7-.4.7Zm-.1 6c-.6 0-.8-.5-.9-1.5 0-.3 0-.7.2-1 .2-.3.4-.5.6-.5.5 0 .8.4.8 1.4 0 1-.3 1.6-.7 1.6Zm-17.4 2.2a1 1 0 0 1-.6-.2c-.2-.1-.3-.3-.3-.5a54.7 54.7 0 0 1 4.7-19.6c.3 0 .4 0 .4.4V3.9a40.7 40.7 0 0 0-2.5 9.6 84 84 0 0 0-.4 2c1.6-2 3.2-3.1 4.7-3.6h.3c.2 0 .4 0 .6.3.1.2.2.5.1.8a6 6 0 0 1-1.6 2.5 378.5 378.5 0 0 0-2.2 2.2c0 .6.8 1.4 2.2 2.5l.3.2.4.1.4.2.3.1c.2.1.2.2.2.3 0 .2 0 .4-.2.6-.1.2-.3.3-.5.3h-.2a16.3 16.3 0 0 1-4.3-4l-1 .3a341.5 341.5 0 0 0-.3 4.6c0 .4-.2.6-.5.6Zm1.8-7h.1c.8 0 1.7-.5 2.7-1.4.7-.8 1.1-1.3 1-1.6 0-.2 0-.2-.2-.2-.5 0-1.7 1-3.6 3.2Zm-68.4 9c.5 1 1 1.5 1.8 1.4.7 0 1.4-.5 2-1.6l.4-1a32.3 32.3 0 0 0 .7-1.6c0-.2-.2-.3-.4-.3s-.3 0-.4.3l-.8 1.5c-.5.6-.9 1-1.3 1-.5 0-.9-.6-1.2-1.9a15.6 15.6 0 0 1-.3-3.7V18a62.6 62.6 0 0 0 1.2-1.7 23 23 0 0 0 3.2-8.9c0-.6 0-1.3-.3-2.1-.3-1-.8-1.6-1.3-1.5-1.5 0-2.6 2.5-3.4 7.5a65.3 65.3 0 0 0-.8 9.2c.1 2.2.4 3.8.9 4.8Zm.6-9.1c.4-6.6 1.3-10.2 2.7-11l.5 1a10 10 0 0 1 .2 1.2c0 2-1 4.8-3.2 8.3l-.2.5ZM24.2 31.5c.5 1 1.1 1.6 1.8 1.5.8 0 1.4-.6 2-1.6l.5-1a32 32 0 0 0 .6-1.6c0-.2-.1-.3-.4-.3-.1 0-.3 0-.4.2l-.8 1.6c-.4.6-.9 1-1.3 1-.5 0-.9-.6-1.2-1.9a15.6 15.6 0 0 1-.3-3.7v-1.5a64.3 64.3 0 0 0 1.2-1.8 23 23 0 0 0 3.2-8.8c0-.6 0-1.3-.3-2.1-.3-1-.7-1.6-1.3-1.6-1.5.1-2.6 2.6-3.4 7.6a65.5 65.5 0 0 0-.7 9.2c0 2.2.4 3.8.8 4.8Zm.6-9c.4-6.6 1.3-10.2 2.7-11 .2.1.4.5.5 1a9.7 9.7 0 0 1 .2 1.2c.1 2-1 4.8-3.1 8.3a3 3 0 0 1-.3.4Zm-4.6 10.8c-.8.1-1.4-.4-1.9-1.5-.4-1-.7-2.6-.8-4.8a33 33 0 0 1 .7-9.2c.8-5 2-7.5 3.4-7.5.6 0 1 .4 1.3 1.5.3.8.4 1.5.4 2.1a23 23 0 0 1-4.4 10.6 383 383 0 0 1 0 2.8c0 .8 0 1.6.3 2.4.3 1.3.6 1.9 1.1 1.9.5 0 .9-.4 1.3-1l.9-1.5c0-.2.2-.3.4-.3s.3 0 .3.3v.2a32 32 0 0 1-1 2.4c-.7 1-1.3 1.6-2 1.6ZM21.7 12c-1.5.7-2.4 4.3-2.8 10.8l.3-.4c2.2-3.5 3.2-6.3 3.1-8.3v-.5l-.2-.6c-.1-.6-.3-1-.4-1Zm-19 20.8.1.1c.1 0 .3 0 .5-.2.2-.1.3-.3.3-.4 0-.2-.1-.3-.3-.5v-.3L3 31V29a393.8 393.8 0 0 1 .4-5.4c0-.5.1-1 .3-1.4l1.6-.3 1.7-.3a31.6 31.6 0 0 1 2.7-.3c.4 0 .5-.3.5-.9 0-.4-.2-.6-.4-.6l-1.5.1a34.6 34.6 0 0 0-3.8.7h-.4l.4-1.6.1-.4.2-1 .1-1.4a147.4 147.4 0 0 0 .4-3l.6-.1a18.3 18.3 0 0 1 2.9-.4h.5l1.7.1c.6 0 1 .2 1.4.6l.2.4v.1c0 .2 0 .4-.2.6v.8c.1.2.2.3.4.3l.5-.5.4-1.2c0-.6-.2-1-.3-1.4l-.7-.6c-.5-.3-1-.5-1.6-.6l-1.7-.2a9 9 0 0 0-6 1.5l-2 1.4c-.1.2-.3.4-.2.8 0 .5.2.7.5.7H2A75 75 0 0 0 4 13.8a51.4 51.4 0 0 1-1 6.7h-.9c-.3 0-.4.4-.4 1 0 .4.2.6.5.6h.5a41 41 0 0 0-.6 3L2 27.4a82.5 82.5 0 0 0-.2 3.8v.4l.1.6c.3.4.6.6.7.6Zm7.2-1.3c.5.5 1 .7 1.8.7.5 0 1-.2 1.5-.6.6-.3 1-.7 1.5-1.2.5-.6.8-1.2 1-1.8.3-.6.5-1.1.4-1.7 0-.7-.2-1.2-.5-1.7l-1-1.4.1-.3c0-.3-.3-.5-1-.4h-.4a13.2 13.2 0 0 0-2.8 2.9 6.1 6.1 0 0 0-1.3 3.8c0 .6.2 1.2.7 1.7Zm3.4-1c-.6.4-1.1.6-1.7.7-.6 0-1-.5-1-1.4-.1-.9.3-2 1-3s1.5-1.8 2.3-2.5c1 1 1.5 1.9 1.5 2.7 0 .6-.2 1.2-.6 1.8-.4.6-1 1.2-1.5 1.6ZM32 31c-.7 0-1.3-.2-1.8-.7-.4-.5-.7-1-.7-1.7 0-1.1.4-2.4 1.4-3.8a10.2 10.2 0 0 1 2.7-2.8l.5-.1c.6 0 1 0 1 .4l-.3.3 1 1.4c.4.5.6 1 .7 1.7 0 .6-.1 1.2-.4 1.8a6.4 6.4 0 0 1-2.5 3c-.6.3-1.1.5-1.6.5Zm0-1c.5 0 1-.3 1.6-.8.6-.4 1-1 1.5-1.6.4-.6.6-1.2.6-1.7 0-.9-.5-1.8-1.4-2.8-1 .7-1.7 1.5-2.4 2.5a5.2 5.2 0 0 0-1 3c0 1 .4 1.4 1 1.4Zm11.8-.6c.5.8 1 1.2 1.6 1.1 1.2 0 2.2-1.4 3-4a71 71 0 0 1 .8-2.5h.5c.2 0 .3-.3.3-.6l-.1-.5a2 2 0 0 0-.8-.8l-.8-.3c-.4 0-.6.3-.5.9 0 .6.1 1 .4 1.1 0 .7-.2 1.3-.4 2-.8 2.3-1.6 3.5-2.4 3.5-.3 0-.6-.4-.9-1.1l-.3-1.5c0-.7 0-1.7.3-3.2 0-.4-.2-.7-.7-.6-.2 0-.4 0-.5.2-1.8 3-3 4.4-3.6 4.4h-.1a279.8 279.8 0 0 1 0-4c0-.3-.2-.5-.5-.5s-.5.2-.5.5a32 32 0 0 0-.2 5v.8l.1.5c0 .4.3.6.6.6l.5-.3 2.2-3c.4-.5.7-.8 1-.9l.4 1.1a25.7 25.7 0 0 0 .6 2.1Zm20.3-.6c-.5 0-.9-.2-1.2-.8 0 0 0-.3-.2-.5a86.7 86.7 0 0 0-.7-1.6 11 11 0 0 1-1.4 1.8c-.8.9-1.4 1.3-1.8 1.3-.4 0-.8-.3-1.2-1-.3-.5-.4-1-.5-1.5 0-1.6 0-3.1.5-4.4 0-.2.2-.4.4-.4s.4 0 .6.3l.3.6-.3.8c-.3.8-.5 1.7-.4 2.7 0 1.1.3 1.6.7 1.6.2 0 .6-.3 1.3-1a9.6 9.6 0 0 0 2.6-4.6c.1-.3.3-.4.5-.4.4 0 .6 0 .6.4v.7l-.2 1a9.6 9.6 0 0 0-.2 1.5 5.7 5.7 0 0 0 .2 1.2l.4 1.1.3-.1.8-.5.7-.4.3-.2c.2 0 .3 0 .3.2s-.1.5-.5.8l-1 1c-.4.2-.7.4-1 .4Zm2.3.3c.4.2.9.2 1.4.2.9 0 1.7-.3 2.4-.8 1-.6 1.3-1.4 1.3-2.3 0-.8-.5-1.7-1.5-2.7-1-1-1.6-1.8-1.5-2.4 0-.7.5-1.3 1.2-1.7h.8c0 .2.2.2.4.2s.3-.2.3-.5v-.4c-.2-.4-.6-.5-1.2-.5-.4 0-.8.2-1.2.6a5 5 0 0 0-1 1.3c-.3.5-.5.9-.4 1.2a4 4 0 0 0 1.2 2.7c1 1.1 1.6 1.9 1.5 2.4-.3 1.2-1 1.8-2.3 1.9a3.4 3.4 0 0 1-1.7-.4c-.2 0-.3.2-.3.4 0 .4.2.6.6.8Zm14-12c-.4.1-.6 0-.6-.5l.3-1.2c0-.3.2-.4.4-.4.5 0 .7.2.7.6 0 .3 0 .6-.2 1-.1.4-.3.6-.7.6Zm-.7 10.4c-.2 0-.3-.1-.4-.3l-.2-.9v-1.1c0-.5 0-1.2.2-2l.8-2.6c0-.2.2-.3.4-.3.4 0 .5.1.4.5l-.1.8-.2.9a28.4 28.4 0 0 0-.2 2.4v1.6c.2.2.1.5 0 .7l-.7.3Zm3.9-.8c0 .5 0 .8.4.8.3 0 .6-.2.7-.5a14.7 14.7 0 0 1 2.6-4l.7-.8.3-.2.3-.1h.2c.3-.1.6.3.8 1.2l.7 2.6c.4.9.8 1.3 1.4 1.3.3 0 .6-.1 1-.4l.9-.9a213.1 213.1 0 0 0 1-1.6c0-.2 0-.3-.2-.3H94a6.5 6.5 0 0 1-1.5 1.7l-.6.2c-.6 0-1-.6-1.2-1.9l-.6-3c-.1-.4-.4-.5-.8-.5H89c-.5.3-1.3.8-2.1 1.8a7 7 0 0 1-1.5 1.4 12 12 0 0 1-.4-2v-.7a17.3 17.3 0 0 1 .1-.9c0-.4-.1-.5-.4-.5-.3 0-.4.2-.5.5a530 530 0 0 0-.6 6.8Zm17.6.8c-.5 0-1 0-1.3-.2-.4-.1-.6-.4-.6-.8 0-.2 0-.3.3-.3l.5.2 1.2.1c1.2 0 2-.7 2.2-1.9.1-.5-.4-1.3-1.5-2.4a4 4 0 0 1-1.2-2.6c0-.4.1-.8.4-1.2.3-.5.6-1 1-1.3.4-.4.8-.6 1.2-.7.7 0 1 .2 1.2.5v.4c0 .3 0 .5-.3.5l-.4-.1a.6.6 0 0 0-.4-.2h-.2l-.1.1c-.8.5-1.2 1-1.3 1.7 0 .6.5 1.4 1.5 2.5 1 .9 1.5 1.8 1.5 2.6 0 1-.3 1.7-1.3 2.3-.7.5-1.5.8-2.4.8Zm6.2-1.3c.5.5 1 .7 1.7.7.6 0 1-.2 1.6-.5l1.5-1.3c.5-.6.8-1.1 1-1.7.3-.6.4-1.2.4-1.8 0-.6-.2-1.2-.6-1.7l-1-1.4.2-.3c0-.3-.3-.4-1-.4l-.4.1a13.1 13.1 0 0 0-2.8 2.8 6.1 6.1 0 0 0-1.4 3.8c0 .7.3 1.2.8 1.7Zm3.4-1c-.6.4-1.1.6-1.7.7-.7 0-1-.4-1-1.4-.1-.9.2-1.9 1-3 .7-1 1.4-1.8 2.3-2.5 1 1 1.5 2 1.5 2.8 0 .5-.2 1-.7 1.7-.4.6-.8 1.2-1.4 1.7Zm7 1c-.9 0-1.6-.3-2-1-.5-.6-.8-1.3-.8-2a7.6 7.6 0 0 1 1-4.3c.9-1.4 2-2 3.3-2.1.5 0 .9.1 1.2.5.3.3.4.7.4 1 0 .7-.3 1-.6 1-.2 0-.3 0-.3-.2l.1-.3v-.4c0-.2 0-.4-.3-.6a.9.9 0 0 0-.6-.2c-1 0-1.7.7-2.4 2-.5 1-.7 2.2-.7 3.3 0 .6.2 1.1.5 1.5.4.5.8.7 1.4.7 1 0 1.8-.4 2.6-1.1l.3-.2c.2 0 .3.1.3.4l-.1.4c-.8 1-1.9 1.6-3.4 1.6Zm5-11.9c0 .4.2.6.5.6s.5-.2.6-.6c.2-.4.2-.7.2-1 0-.4-.1-.6-.6-.6-.3 0-.4.2-.4.4l-.3 1.2Zm-.5 10.6c0 .2.2.3.4.3l.6-.3c.2-.2.2-.4.1-.6a17.3 17.3 0 0 1 0-2.7l.1-1.4.2-.8.2-.9c0-.4 0-.5-.5-.5-.2 0-.3.1-.4.3a37.7 37.7 0 0 0-1 4.6v1.2l.3.8Zm12.5.5h-.2c-.7-.7-1-1.5-1-2.7v-1.4c0-.5-.2-.6-.5-.5a37.7 37.7 0 0 0-4.1 3.6c-.4.5-1 .7-1.6.7-.4 0-.7-.1-1-.5-.3-.4-.4-.8-.4-1.2 0-.6.2-1.2.6-1.9a13 13 0 0 1 3-3.9 7 7 0 0 1 2.5-1.4l.7-.1c.9 0 1.4.2 1.4.9 0 .2 0 .3-.3.3H133.6c-.4-.4-.8-.5-1.1-.5-.3 0-.8.3-1.4.7-.5.3-1 .7-1.4 1.2a13.3 13.3 0 0 0-2.1 3 3.1 3.1 0 0 0-.4 1.5c0 .4.2.6.4.5.4 0 1-.3 2-1 2-1.6 3.6-3 4.4-4.3l.5-1.1c0-.3.3-.5.6-.5.4 0 .6.2.6.6 0 .3 0 .8-.4 1.3a13 13 0 0 0-.6 3.3c.1 1 .4 1.7.8 2.2l.1.3c0 .2 0 .4-.2.6l-.6.3Zm15.7-1.4c-.3 0-.4-.3-.4-.9a58 58 0 0 1 .6-6.7c.1-.3.3-.5.5-.5.3 0 .5.1.5.4V16.6a17.8 17.8 0 0 0-.1 1.4v1l.3 1 1.5-1.5c.9-.9 1.6-1.5 2.2-1.7H155.9c.4 0 .7.1.8.5l.6 3c.3 1.3.7 2 1.2 1.9l.6-.3.9-.7.7-.8.2-.1c.2 0 .2 0 .2.3 0 0 0 .3-.2.5a308.4 308.4 0 0 1-1.6 2l-1 .4c-.6 0-1-.4-1.4-1.4l-.7-2.6c-.3-.8-.5-1.2-.8-1.1h-.5a1 1 0 0 0-.3.3l-.8.8a16.7 16.7 0 0 0-2.5 4c-.2.3-.4.5-.8.5Zm11.8-.6c.6.5 1.4.8 2.4.7.8 0 1.5-.2 2-.7.2-.1.3-.3.3-.5s-.2-.4-.4-.3h-.2c-.6.2-1 .4-1.5.4-1.4 0-2.1-.6-2.3-2 .6 0 1.2-.2 1.7-.6l1.4-1.2c1.1-1 1.6-2.2 1.6-3.2 0-.8-.3-1.2-1-1.2-1 0-2 .7-3 1.9a6.8 6.8 0 0 0-1.9 3v1.4c0 1 .3 1.7 1 2.3Zm2.8-4.9-1.7 1c-.3 0-.4-.1-.4-.3V19a10 10 0 0 1 .8-1.5c.7-1 1.3-1.5 2-1.6h.2l.2.4c0 .7-.3 1.4-1.1 2.2Zm6.4 6.6c-.5 0-.8-.3-.8-1-.2-3.2-.2-6.6.1-10.3h-.7l-.6-.1c-.6-.1-1-.3-1-.5 0-.3.2-.4.4-.5-.2 0-.2 0 0 0a17.2 17.2 0 0 1 2-.4l.6-2.7a32 32 0 0 0 .8-2.8c0-.4.3-.7.8-.7.2 0 .2.1.2.3a143.8 143.8 0 0 0-1.2 5.8h.7a18.4 18.4 0 0 1 2 0h.8c.2 0 .3 0 .3.2l-.3.4c-.1.2-.3.3-.5.3s-.6 0-1.1.2l-2 .4c-.1 2.7-.1 6.3.1 10.8 0 .4-.2.5-.6.6Zm9.6-3c.4.8 1 1.2 1.6 1.2 1.2-.1 2.1-1.4 2.9-4a71 71 0 0 1 .9-2.6h.4c.3 0 .4-.2.4-.6 0-.2 0-.3-.2-.5a2 2 0 0 0-.8-.8c-.3-.2-.5-.3-.8-.3-.3 0-.5.3-.5.9 0 .6.2 1 .4 1.1 0 .7-.2 1.3-.4 2-.8 2.3-1.5 3.5-2.3 3.5-.4 0-.7-.3-1-1.1a6 6 0 0 1-.3-1.5l.3-3.1c.1-.5-.1-.8-.7-.7-.2 0-.4 0-.5.2-1.7 3-3 4.4-3.6 4.4a287.4 287.4 0 0 1-.1-4c0-.3-.2-.5-.5-.4-.3 0-.4.1-.5.4a32 32 0 0 0-.2 5v.8l.2.5c0 .4.2.6.5.6.2 0 .3-.1.5-.3l2.3-3c.4-.5.7-.8 1-.9l.3 1.1a26.3 26.3 0 0 0 .7 2.1Zm9.4.5c-.7 0-1.3-.2-1.8-.7-.5-.5-.7-1-.7-1.7 0-1.2.4-2.4 1.3-3.8a10.3 10.3 0 0 1 2.8-2.8l.5-.1c.6 0 .9 0 1 .4l-.3.3 1 1.4c.4.5.6 1 .6 1.7 0 .6 0 1.1-.3 1.7a6.4 6.4 0 0 1-2.6 3c-.5.4-1 .6-1.5.6Zm0-1c.5 0 1-.3 1.6-.8.6-.4 1-1 1.5-1.6.4-.6.6-1.2.6-1.8 0-.8-.5-1.7-1.4-2.7-1 .7-1.7 1.5-2.4 2.5a5.2 5.2 0 0 0-1 3c0 1 .4 1.4 1 1.4Zm7-.8c0 .4.2.7.4.7.4 0 .6-.3.7-.7.2-2 1-4 2.6-6.1.4-.6.8-.9 1.3-1l.9.5h.3c.2 0 .3-.1.3-.4 0-.2 0-.3-.2-.5-.4-.4-.9-.6-1.4-.6-.5 0-1 .3-1.4.8a13 13 0 0 0-2 2.7c-.2.6-.4.8-.6.8 0 0-.2-.1-.2-.5a279 279 0 0 0-.4-4.3c0-.3-.1-.4-.3-.4-.3 0-.4.2-.4.4v.7l.1.6a30.1 30.1 0 0 1 0 4v1.7l.2 1.6Zm16.1.5c.4.2.9.2 1.4.2 1 0 1.7-.3 2.4-.8 1-.6 1.4-1.4 1.3-2.3 0-.9-.5-1.7-1.5-2.7-1-1-1.5-1.8-1.5-2.4 0-.7.5-1.3 1.2-1.7h.4c.1-.1.3 0 .4 0 .1.2.2.2.4.2s.3-.2.3-.5v-.4c-.2-.4-.6-.5-1.2-.5-.4 0-.8.2-1.2.6a5 5 0 0 0-1 1.3c-.3.5-.4.9-.4 1.2a4 4 0 0 0 1.2 2.7c1 1 1.6 1.9 1.5 2.4-.3 1.2-1 1.8-2.3 1.9a3.4 3.4 0 0 1-1.7-.4c-.2 0-.3.2-.3.4 0 .4.2.6.6.8Zm-161 14.6a1100 1100 0 0 0-52.5 5L0 40a1100 1100 0 0 1 52.6-5v1ZM6.2 44c13.2-1.4 38.2-3.7 48.6-4v-1c-10.5.3-35.5 2.6-48.7 4l.1 1Z" fill="#fff"/>
</svg>
