<svg width="24" height="24" viewBox="0 0 24 24" fill="none" xmlns="http://www.w3.org/2000/svg">
<path d="M3.71992 10.8323C8.87387 8.46148 12.3106 6.89847 14.0302 6.1433C18.94 3.98714 19.9603 3.6126 20.6252 3.6001C20.7715 3.59751 21.0985 3.63578 21.3103 3.81725C21.4892 3.97048 21.5384 4.17748 21.5619 4.32276C21.5855 4.46805 21.6148 4.799 21.5915 5.0576C21.3254 8.00922 20.1742 15.172 19.5885 18.4779C19.3406 19.8767 18.8527 20.3458 18.3802 20.3917C17.3536 20.4914 16.5739 19.6753 15.5795 18.987C14.0235 17.9101 13.1445 17.2397 11.6341 16.1888C9.88853 14.9743 11.0201 14.3068 12.0149 13.2159C12.2752 12.9304 16.7988 8.58617 16.8863 8.19208C16.8973 8.14279 16.9075 7.95907 16.8041 7.86205C16.7007 7.76504 16.5481 7.79822 16.438 7.8246C16.282 7.862 13.7962 9.59673 8.98069 13.0288C8.27511 13.5403 7.63602 13.7896 7.06342 13.7765C6.43216 13.7621 5.21789 13.3997 4.3152 13.0899C3.20802 12.7099 2.32805 12.509 2.40468 11.8636C2.44459 11.5275 2.883 11.1837 3.71992 10.8323Z" fill="#C5E4F3" />
</svg>
