<svg width="24" height="24" viewBox="0 0 24 24" fill="none" xmlns="http://www.w3.org/2000/svg">
<path d="M22.7999 5.7309C21.9967 6.09228 21.1408 6.33182 20.2484 6.44813C21.1664 5.88598 21.8671 5.00259 22.1965 3.93782C21.3406 4.46121 20.3956 4.8309 19.3885 5.03721C18.5758 4.14967 17.4175 3.59998 16.1539 3.59998C13.7023 3.59998 11.7286 5.6409 11.7286 8.1429C11.7286 8.5029 11.7583 8.84905 11.8312 9.17859C8.14975 8.99444 4.8922 7.18474 2.70385 4.42798C2.3218 5.10782 2.0977 5.88598 2.0977 6.72367C2.0977 8.29659 2.88745 9.6909 4.06465 10.4981C3.3532 10.4843 2.65525 10.2724 2.06395 9.93874C2.06395 9.95259 2.06395 9.97059 2.06395 9.98859C2.06395 12.1957 3.5989 14.0289 5.61175 14.4512C5.2513 14.5523 4.85845 14.6007 4.45075 14.6007C4.16725 14.6007 3.88105 14.5841 3.6124 14.5232C4.18615 16.3218 5.81425 17.6441 7.75015 17.687C6.24355 18.8958 4.3306 19.6241 2.2597 19.6241C1.89655 19.6241 1.54825 19.6075 1.19995 19.5618C3.1615 20.8592 5.4862 21.6 7.99315 21.6C16.1418 21.6 20.5968 14.6769 20.5968 8.67597C20.5968 8.47521 20.59 8.28136 20.5805 8.0889C21.4594 7.44921 22.1978 6.65028 22.7999 5.7309Z" fill="#C5E4F3"/>
</svg>
