<svg width="20" height="20" viewBox="0 0 20 20" fill="none" xmlns="http://www.w3.org/2000/svg">
<path fill-rule="evenodd" clip-rule="evenodd" d="M10 19C14.9706 19 19 14.9706 19 10C19 5.02944 14.9706 1 10 1C5.02944 1 1 5.02944 1 10C1 14.9706 5.02944 19 10 19ZM13.0404 17.0666C14.8204 16.2997 16.2529 14.88 17.0366 13.1091H14.6083C14.2927 14.681 13.7445 16.0469 13.0404 17.0666ZM13.2703 13.1091C13.0456 14.1206 12.7174 15.0123 12.322 15.7371C11.7731 16.7434 11.1825 17.2935 10.6545 17.5363V13.1091H13.2703ZM14.8109 11.8H17.4791C17.6176 11.2226 17.6909 10.6199 17.6909 10C17.6909 9.38014 17.6176 8.7774 17.4791 8.2H14.8109C14.8753 8.7816 14.9091 9.38356 14.9091 10C14.9091 10.6164 14.8753 11.2184 14.8109 11.8ZM13.4931 8.2C13.5627 8.77492 13.6 9.37715 13.6 10C13.6 10.6228 13.5627 11.2251 13.4931 11.8H10.6545V8.2H13.4931ZM14.6083 6.89091H17.0366C16.2529 5.11997 14.8204 3.70029 13.0404 2.93344C13.7445 3.95311 14.2927 5.31897 14.6083 6.89091ZM10.6545 2.46368C11.1825 2.70645 11.7731 3.25661 12.322 4.2629C12.7174 4.98772 13.0456 5.87942 13.2703 6.89091H10.6545V2.46368ZM6.95959 2.93344C5.17964 3.70029 3.74707 5.11997 2.96343 6.89091H5.39171C5.70735 5.31897 6.25545 3.95312 6.95959 2.93344ZM6.72966 6.89091C6.95445 5.87942 7.28264 4.98772 7.67799 4.2629C8.22688 3.25661 8.81751 2.70645 9.34545 2.46368V6.89091H6.72966ZM5.18911 8.2H2.52088C2.38242 8.7774 2.30909 9.38014 2.30909 10C2.30909 10.6199 2.38242 11.2226 2.52088 11.8H5.18911C5.12471 11.2184 5.09091 10.6164 5.09091 10C5.09091 9.38356 5.12471 8.7816 5.18911 8.2ZM6.50689 11.8C6.43734 11.2251 6.4 10.6228 6.4 10C6.4 9.37715 6.43734 8.77492 6.50689 8.2H9.34545V11.8H6.50689ZM6.72966 13.1091H9.34545V17.5363C8.81751 17.2935 8.22688 16.7434 7.67799 15.7371C7.28264 15.0123 6.95445 14.1206 6.72966 13.1091ZM5.39171 13.1091C5.70735 14.681 6.25545 16.0469 6.95959 17.0666C5.17964 16.2997 3.74707 14.88 2.96343 13.1091H5.39171Z" fill="white"/>
</svg>
