<svg width="24" height="24" viewBox="0 0 36 36" fill="none" xmlns="http://www.w3.org/2000/svg">
<rect width="36" height="36" rx="18" fill="url(#paint0_linear_8635_158003)"/>
<path d="M22.6053 17.8965H14.5526C14.5526 21.2586 15 23.2758 16.3421 26.862C12.7632 25.2931 10.9737 21.7069 10.9737 16.5517C10.9737 12.5172 11.6447 8.93101 15.4474 8.03446C14.7763 10.5 14.5526 11.8448 14.5526 14.7586H22.6053V10.2758C22.6053 9.60342 22.6053 9.15515 21.7105 8.70687C22.6053 7.58618 23.5 7.58618 24.3947 7.58618C25.8772 7.58618 27.0789 8.79038 27.0789 10.2758V25.0689C27.0789 25.8117 26.4781 26.4138 25.7368 26.4138H23.9474C23.2061 26.4138 22.6053 25.8117 22.6053 25.0689V17.8965Z" fill="white"/>
<path d="M7.84211 17C7.84211 14.7586 8.28947 12.9655 10.5263 11.6207C9.85526 13.4138 9.63158 14.7586 9.63158 16.5517C9.63158 19.6896 10.9737 25.5172 16.1184 27.9827C15.671 28.431 14.5526 28.6551 13.6579 28.6551C9.85521 28.6551 6.49995 25.0689 6.5 22.1551C6.5 21.0345 6.72363 20.362 7.39474 19.6896C8.28942 23.5 9.40784 25.5172 12.3158 27.3103C9.85521 24.6207 7.84211 20.362 7.84211 17Z" fill="white"/>
<defs>
<linearGradient id="paint0_linear_8635_158003" x1="18" y1="0" x2="18" y2="36" gradientUnits="userSpaceOnUse">
<stop stop-color="#F7E86C"/>
<stop offset="1" stop-color="#C19500"/>
</linearGradient>
</defs>
</svg>
