<svg width="24" height="24" viewBox="0 0 1200 1200" fill="none" xmlns="http://www.w3.org/2000/svg">
  <path d="M600 1200c331.37 0 600-268.63 600-600S931.37 0 600 0 0 268.63 0 600s268.63 600 600 600Z" fill="#0098EA"/>
  <path d="M804.86 334.88H395.11c-75.34 0-123.09 81.27-85.19 146.97l252.89 438.31c16.5 28.62 57.86 28.62 74.36 0L890.1 481.85c37.85-65.6-9.9-146.97-85.19-146.97h-.05ZM562.6 788.72l-55.07-106.6-132.89-237.66c-8.76-15.21 2.06-34.7 20.42-34.7h167.49v379l.05-.04ZM825.23 444.4 692.39 682.18l-55.07 106.54V409.7h167.5c18.35 0 29.18 19.5 20.41 34.7Z" fill="#fff"/>
</svg>
