<svg width="24" height="24" viewBox="0 0 24 24" fill="none" xmlns="http://www.w3.org/2000/svg">
<rect width="24" height="24" rx="12" fill="black"/>
<path fill-rule="evenodd" clip-rule="evenodd" d="M13.3404 12.8596L15.4246 8.57387L11.0782 10.688L11.0531 8.31158L8.80717 9.94352L8.73472 9.98498C8.44411 10.1513 8.16919 10.3592 7.91825 10.6101C6.40751 12.121 6.40751 14.5706 7.91825 16.0815C9.42898 17.5924 11.8784 17.5924 13.3891 16.0815C13.6137 15.8569 13.8037 15.6132 13.9602 15.3564L13.9986 15.2935L15.759 12.9454L13.3404 12.8596ZM18.75 11.5154L15.2711 16.1555C15.0515 16.5157 14.7861 16.8557 14.4746 17.1672C12.3644 19.2776 8.94296 19.2776 6.8327 17.1672C4.72243 15.0567 4.72243 11.635 6.8327 9.5245C7.18082 9.17635 7.56463 8.88562 7.97234 8.65234L12.5569 5.32112L12.5877 8.24644L18.7482 5.25L15.753 11.4089L18.75 11.5154Z" fill="#2ECC71"/>
</svg>
